STARTFONT 2.1
COMMENT
COMMENT Converted from OpenType font "OldWizard.ttf" by "otf2bdf 3.0".
COMMENT
FONT -FreeType-OldWizard-Medium-R-Normal--33-240-100-100-P-166-ISO10646-1
SIZE 24 100 100
FONTBOUNDINGBOX 33 33 -4 -8
STARTPROPERTIES 19
FOUNDRY "FreeType"
FAMILY_NAME "OldWizard"
WEIGHT_NAME "Medium"
SLANT "R"
SETWIDTH_NAME "Normal"
ADD_STYLE_NAME ""
PIXEL_SIZE 33
POINT_SIZE 240
RESOLUTION_X 100
RESOLUTION_Y 100
SPACING "P"
AVERAGE_WIDTH 166
CHARSET_REGISTRY "ISO10646"
CHARSET_ENCODING "1"
FONT_ASCENT 24
FONT_DESCENT 8
COPYRIGHT "Angel"
_OTF_FONTFILE "OldWizard.ttf"
_OTF_PSNAME "OldWizard"
ENDPROPERTIES
CHARS 319
STARTCHAR 0020
ENCODING 32
SWIDTH 300 0
DWIDTH 10 0
BBX 0 0 0 0
BITMAP
ENDCHAR
STARTCHAR 0021
ENCODING 33
SWIDTH 300 0
DWIDTH 10 0
BBX 8 23 0 -2
BITMAP
0C
0C
3C
3C
FC
FC
FC
3C
3C
3C
3C
3C
3C
3C
3C
30
30
0C
0C
3F
3F
0C
0C
ENDCHAR
STARTCHAR 0022
ENCODING 34
SWIDTH 360 0
DWIDTH 12 0
BBX 10 9 0 12
BITMAP
30C0
30C0
F3C0
F3C0
F3C0
F3C0
F3C0
C300
C300
ENDCHAR
STARTCHAR 0023
ENCODING 35
SWIDTH 570 0
DWIDTH 19 0
BBX 17 21 0 0
BITMAP
030C00
030C00
030C00
030C00
3FFF80
3FFF80
3FFF80
FFFC00
FFFC00
0C3000
0C3000
0C3000
0C3000
3FFF80
3FFF80
FFFC00
FFFC00
30C000
30C000
30C000
30C000
ENDCHAR
STARTCHAR 0024
ENCODING 36
SWIDTH 690 0
DWIDTH 23 0
BBX 19 27 2 -4
BITMAP
00C000
00C000
0FFE00
0FFE00
30CF80
30CF80
FCCF80
FCC380
FCC380
FFFE00
FFFE00
3FFF80
3FFF80
0CCFE0
0CCFE0
30C3E0
30C3E0
F0C3E0
F0C3E0
FCC380
FCC380
3FFE00
3FFE00
00F000
00F000
00C000
00C000
ENDCHAR
STARTCHAR 0025
ENCODING 37
SWIDTH 750 0
DWIDTH 25 0
BBX 23 21 0 0
BITMAP
0F03E0
0F03E0
33C380
33C380
F3CF80
F3CF80
F3CF80
F30C00
F30C00
3C3C00
3C3C00
0030F8
0030F8
00F39E
00F39E
00CF9E
00CF9E
030F98
030F98
0C03E0
0C03E0
ENDCHAR
STARTCHAR 0026
ENCODING 38
SWIDTH 630 0
DWIDTH 21 0
BBX 19 21 0 0
BITMAP
03F000
03F000
0CFC00
0CFC00
3CFC00
3C3C00
3C3C00
3F3000
3F3000
0FC000
0FC000
33CFE0
33CFE0
F3FF80
F3FF80
F0FC00
F0FC00
FC3F80
FC3F80
3FCFE0
3FCFE0
ENDCHAR
STARTCHAR 0027
ENCODING 39
SWIDTH 180 0
DWIDTH 6 0
BBX 4 9 0 12
BITMAP
30
30
F0
F0
F0
F0
F0
C0
C0
ENDCHAR
STARTCHAR 0028
ENCODING 40
SWIDTH 360 0
DWIDTH 12 0
BBX 10 27 0 -6
BITMAP
0300
0300
0C00
0C00
3C00
3C00
3C00
3C00
3C00
F000
F000
F000
F000
F000
F000
F000
F000
FC00
FC00
FC00
FC00
3F00
3F00
3FC0
3FC0
0F00
0F00
ENDCHAR
STARTCHAR 0029
ENCODING 41
SWIDTH 360 0
DWIDTH 12 0
BBX 10 27 0 -6
BITMAP
3C00
3C00
FF00
FF00
FF00
3F00
3F00
0FC0
0FC0
0FC0
0FC0
03C0
03C0
03C0
03C0
03C0
03C0
03C0
03C0
0F00
0F00
0F00
0F00
0C00
0C00
3000
3000
ENDCHAR
STARTCHAR 002A
ENCODING 42
SWIDTH 360 0
DWIDTH 12 0
BBX 10 9 0 12
BITMAP
0C00
0C00
FFC0
FFC0
FFC0
3F00
3F00
3300
3300
ENDCHAR
STARTCHAR 002B
ENCODING 43
SWIDTH 570 0
DWIDTH 19 0
BBX 17 17 0 2
BITMAP
00C000
00C000
03C000
03C000
03C000
03C000
03C000
3FFF80
3FFF80
FFFC00
FFFC00
03C000
03C000
03C000
03C000
030000
030000
ENDCHAR
STARTCHAR 002C
ENCODING 44
SWIDTH 240 0
DWIDTH 8 0
BBX 6 8 0 -2
BITMAP
3C
3C
FC
FC
0C
0C
30
30
ENDCHAR
STARTCHAR 002D
ENCODING 45
SWIDTH 420 0
DWIDTH 14 0
BBX 12 4 0 8
BITMAP
3FF0
3FF0
FFC0
FFC0
ENDCHAR
STARTCHAR 002E
ENCODING 46
SWIDTH 240 0
DWIDTH 8 0
BBX 6 6 0 0
BITMAP
30
30
FC
FC
30
30
ENDCHAR
STARTCHAR 002F
ENCODING 47
SWIDTH 420 0
DWIDTH 14 0
BBX 12 21 0 0
BITMAP
00F0
00F0
03C0
03C0
03C0
03C0
03C0
0300
0300
0F00
0F00
0F00
0F00
0C00
0C00
3C00
3C00
3000
3000
C000
C000
ENDCHAR
STARTCHAR 0030
ENCODING 48
SWIDTH 510 0
DWIDTH 17 0
BBX 14 21 0 0
BITMAP
0FF0
0FF0
30FC
30FC
F0FC
F03C
F03C
F0FC
F0FC
F33C
F33C
FC3C
FC3C
F03C
F03C
F03C
F03C
FC30
FC30
3FC0
3FC0
ENDCHAR
STARTCHAR 0031
ENCODING 49
SWIDTH 420 0
DWIDTH 14 0
BBX 12 21 0 0
BITMAP
0300
0300
0F00
0F00
3F00
3F00
3F00
CF00
CF00
0F00
0F00
0F00
0F00
0F00
0F00
0F00
0F00
3FF0
3FF0
FFC0
FFC0
ENDCHAR
STARTCHAR 0032
ENCODING 50
SWIDTH 570 0
DWIDTH 19 0
BBX 19 21 -2 0
BITMAP
03FC00
03FC00
0C3F00
0C3F00
3C3F00
300F00
300F00
000F00
000F00
000C00
000C00
003000
003000
00C000
00C000
0FC0E0
0FC0E0
3FFF00
3FFF00
C0FC00
C0FC00
ENDCHAR
STARTCHAR 0033
ENCODING 51
SWIDTH 420 0
DWIDTH 14 0
BBX 12 21 0 0
BITMAP
0FF0
0FF0
3FC0
3FC0
FFC0
C300
C300
0C00
0C00
3FC0
3FC0
03F0
03F0
00F0
00F0
F0F0
F0F0
FCC0
FCC0
3F00
3F00
ENDCHAR
STARTCHAR 0034
ENCODING 52
SWIDTH 510 0
DWIDTH 17 0
BBX 14 21 0 0
BITMAP
0030
0030
00F0
00F0
03F0
03F0
03F0
0CF0
0CF0
30F0
30F0
C0F0
C0F0
FFFC
FFFC
FFF0
FFF0
00F0
00F0
00C0
00C0
ENDCHAR
STARTCHAR 0035
ENCODING 53
SWIDTH 510 0
DWIDTH 17 0
BBX 14 21 0 0
BITMAP
0FFC
0FFC
3FF0
3FF0
3FF0
3000
3000
FFC0
FFC0
FFF0
FFF0
C0FC
C0FC
003C
003C
F03C
F03C
FC30
FC30
3FC0
3FC0
ENDCHAR
STARTCHAR 0036
ENCODING 54
SWIDTH 510 0
DWIDTH 17 0
BBX 14 21 0 0
BITMAP
03F0
03F0
0CFC
0CFC
3CFC
303C
303C
F000
F000
F3F0
F3F0
FCFC
FCFC
F03C
F03C
F03C
F03C
FC30
FC30
3FC0
3FC0
ENDCHAR
STARTCHAR 0037
ENCODING 55
SWIDTH 510 0
DWIDTH 17 0
BBX 14 21 0 0
BITMAP
0FFC
0FFC
3FF0
3FF0
FFF0
C0C0
C0C0
00C0
00C0
0300
0300
3FF0
3FF0
0F00
0F00
0F00
0F00
0FC0
0FC0
0F00
0F00
ENDCHAR
STARTCHAR 0038
ENCODING 56
SWIDTH 510 0
DWIDTH 17 0
BBX 14 21 0 0
BITMAP
0FF0
0FF0
30FC
30FC
F0FC
F03C
F03C
FC3C
FC3C
3FF0
3FF0
F0FC
F0FC
F03C
F03C
F03C
F03C
FC30
FC30
3FC0
3FC0
ENDCHAR
STARTCHAR 0039
ENCODING 57
SWIDTH 510 0
DWIDTH 17 0
BBX 14 21 0 0
BITMAP
0FF0
0FF0
3CFC
3CFC
FCFC
F03C
F03C
F03C
F03C
FCFC
FCFC
3F3C
3F3C
0030
0030
30C0
30C0
FF00
FF00
3C00
3C00
ENDCHAR
STARTCHAR 003A
ENCODING 58
SWIDTH 240 0
DWIDTH 8 0
BBX 6 17 0 0
BITMAP
30
30
30
FC
FC
30
30
00
00
00
00
30
30
FC
FC
30
30
ENDCHAR
STARTCHAR 003B
ENCODING 59
SWIDTH 240 0
DWIDTH 8 0
BBX 6 19 0 -2
BITMAP
30
30
30
FC
FC
30
30
00
00
00
00
3C
3C
FC
FC
0C
0C
30
30
ENDCHAR
STARTCHAR 003C
ENCODING 60
SWIDTH 570 0
DWIDTH 19 0
BBX 17 15 0 2
BITMAP
003C00
003C00
003C00
03C000
03C000
3C0000
3C0000
FC0000
FC0000
FFC000
FFC000
0FFF80
0FFF80
00FC00
00FC00
ENDCHAR
STARTCHAR 003D
ENCODING 61
SWIDTH 510 0
DWIDTH 17 0
BBX 14 10 0 4
BITMAP
3FFC
3FFC
FFF0
FFF0
0000
0000
3FFC
3FFC
FFF0
FFF0
ENDCHAR
STARTCHAR 003E
ENCODING 62
SWIDTH 570 0
DWIDTH 19 0
BBX 17 15 0 2
BITMAP
3F0000
3F0000
3F0000
FFF000
FFF000
03FF80
03FF80
003F80
003F80
003C00
003C00
03C000
03C000
3C0000
3C0000
ENDCHAR
STARTCHAR 003F
ENCODING 63
SWIDTH 420 0
DWIDTH 14 0
BBX 12 25 0 -4
BITMAP
0FC0
0FC0
3FF0
3FF0
FFF0
C0F0
C0F0
00C0
00C0
0F00
0F00
3F00
3F00
0FC0
0FC0
0300
0300
0000
0000
0300
0300
0FC0
0FC0
0300
0300
ENDCHAR
STARTCHAR 0040
ENCODING 64
SWIDTH 870 0
DWIDTH 29 0
BBX 27 25 0 -4
BITMAP
003FF800
003FF800
03FFFE00
03FFFE00
0FFFFF80
0C001F80
0C001F80
303F87E0
303F87E0
30C3E1E0
30C3E1E0
F03FE1E0
F03FE1E0
F0C3E1E0
F0C3E1E0
F3C3E180
F3C3E180
F3F3E600
F3F3E600
FCFCF860
FCFCF860
3F000180
3F000180
0FFFFE00
0FFFFE00
ENDCHAR
STARTCHAR 0041
ENCODING 65
SWIDTH 630 0
DWIDTH 21 0
BBX 19 21 0 0
BITMAP
0FFFE0
0FFFE0
3CFF80
3CFF80
FCFF80
C0FF80
C0FF80
C3CF80
C3CF80
03CF80
03CF80
0FFF80
0FFF80
0F0F80
0F0F80
3C0F80
3C0F80
3C0FE0
3C0FE0
F03F80
F03F80
ENDCHAR
STARTCHAR 0042
ENCODING 66
SWIDTH 510 0
DWIDTH 17 0
BBX 16 23 -2 -2
BITMAP
3CFC
3CFC
0F3F
0F3F
0F3F
0F0F
0F0F
0F0F
0F0F
0F3C
0F3C
0FCF
0FCF
0F0F
0F0F
0F0F
0F0F
0F0C
0F0C
3FF0
3FF0
C000
C000
ENDCHAR
STARTCHAR 0043
ENCODING 67
SWIDTH 630 0
DWIDTH 21 0
BBX 19 21 0 0
BITMAP
03F0E0
03F0E0
33FF80
33FF80
F3FF80
F3C000
F3C000
F3C000
F3C000
F3C000
F3C000
F30000
F30000
F30000
F30000
3C00E0
3C00E0
3FFF80
3FFF80
0FFC00
0FFC00
ENDCHAR
STARTCHAR 0044
ENCODING 68
SWIDTH 630 0
DWIDTH 21 0
BBX 21 21 -2 0
BITMAP
0FFF00
0FFF00
3FFFE0
3FFFE0
FFFFF8
C033F8
C033F8
0330F8
0330F8
0F30F8
0F30F8
0F30F8
0F30F8
0F30F8
0F30F8
0F30F8
0F30F8
0C33E0
0C33E0
33FF00
33FF00
ENDCHAR
STARTCHAR 0045
ENCODING 69
SWIDTH 570 0
DWIDTH 19 0
BBX 17 21 0 0
BITMAP
0CFF80
0CFF80
33FC00
33FC00
F3FC00
F30000
F30000
F30000
F30000
F3FC00
F3FC00
F3F000
F3F000
F30000
F30000
FC0380
FC0380
3FFF80
3FFF80
0FFC00
0FFC00
ENDCHAR
STARTCHAR 0046
ENCODING 70
SWIDTH 630 0
DWIDTH 21 0
BBX 21 21 -2 0
BITMAP
0FC038
0FC038
3FFFE0
3FFFE0
FFFFE0
C0FF00
C0FF00
03C000
03C000
03FF00
03FF00
03FC00
03FC00
03C000
03C000
33C000
33C000
F30000
F30000
3C0000
3C0000
ENDCHAR
STARTCHAR 0047
ENCODING 71
SWIDTH 630 0
DWIDTH 21 0
BBX 19 21 0 0
BITMAP
03F0E0
03F0E0
33FF80
33FF80
F3FF80
F30000
F30000
F30F80
F30F80
F333E0
F333E0
F303E0
F303E0
F003E0
F003E0
FC03E0
FC03E0
3F0380
3F0380
0FFC00
0FFC00
ENDCHAR
STARTCHAR 0048
ENCODING 72
SWIDTH 570 0
DWIDTH 19 0
BBX 19 23 -2 -2
BITMAP
0FC000
0FC000
3F0000
3F0000
FF3F00
CF3F00
CF3F00
0FCFE0
0FCFE0
0F03E0
0F03E0
0F03E0
0F03E0
0F03E0
0F03E0
0F03E0
0F03E0
0FC3E0
0FC3E0
3F0300
3F0300
000C00
000C00
ENDCHAR
STARTCHAR 0049
ENCODING 73
SWIDTH 570 0
DWIDTH 19 0
BBX 19 21 -2 0
BITMAP
3FC0E0
3FC0E0
C3FF00
C3FF00
C3FF00
033C00
033C00
033C00
033C00
033C00
033C00
033C00
033C00
033C00
033C00
003C00
003C00
0FFF00
0FFF00
30FC00
30FC00
ENDCHAR
STARTCHAR 004A
ENCODING 74
SWIDTH 690 0
DWIDTH 23 0
BBX 23 25 -2 -4
BITMAP
03FC06
03FC06
0FFFF8
0FFFF8
3FFFF8
3003E0
3003E0
0033E0
0033E0
0033E0
0033E0
0033E0
0033E0
0033E0
0033E0
0FC3E0
0FC3E0
33F300
33F300
C0FC00
C0FC00
FC0000
FC0000
300000
300000
ENDCHAR
STARTCHAR 004B
ENCODING 75
SWIDTH 630 0
DWIDTH 21 0
BBX 21 23 -2 -2
BITMAP
0FC000
0FC000
FF0000
FF0000
FF3F00
0F3F00
0F3F00
0FCFE0
0FCFE0
0F0F00
0F0F00
0FFC00
0FFC00
0F0F00
0F0F00
0F0FE0
0F0FE0
0FC3F8
0FC3F8
0F03E0
0F03E0
000300
000300
ENDCHAR
STARTCHAR 004C
ENCODING 76
SWIDTH 630 0
DWIDTH 21 0
BBX 21 21 -2 0
BITMAP
3F0300
3F0300
0FFC00
0FFC00
0FFC00
0FC000
0FC000
03C000
03C000
03C000
03C000
03C000
03C000
030000
030000
0FC038
0FC038
3FFFE0
3FFFE0
C03F00
C03F00
ENDCHAR
STARTCHAR 004D
ENCODING 77
SWIDTH 870 0
DWIDTH 29 0
BBX 29 21 -2 0
BITMAP
030F0780
030F0780
0F3FFFE0
0F3FFFE0
3FFFFFF8
33C3E1F8
33C3E1F8
F3C3E1E0
F3C3E1E0
F3C3E1E0
F3C3E1E0
33CFF9E0
33CFF9E0
03C3E1E0
03C3E1E0
03C3E1E0
03C3E1E0
3FC3E1F8
3FC3E1F8
0F0301E0
0F0301E0
ENDCHAR
STARTCHAR 004E
ENCODING 78
SWIDTH 750 0
DWIDTH 25 0
BBX 25 21 -2 0
BITMAP
030FE000
030FE000
0F3FF800
0F3FF800
3FFFF800
33C3F800
33C3F800
F3C0F800
F3C0F800
F3C0F800
F3C0F800
33C0F800
33C0F800
03C0F800
03C0F800
03C0E180
03C0E180
3FC3FE00
3FC3FE00
C30FF800
C30FF800
ENDCHAR
STARTCHAR 004F
ENCODING 79
SWIDTH 630 0
DWIDTH 21 0
BBX 19 21 0 0
BITMAP
0CFF80
0CFF80
33CFE0
33CFE0
F3CFE0
F3C3E0
F3C3E0
F3C3E0
F3C3E0
F3F3E0
F3F3E0
F3C3E0
F3C3E0
F3C3E0
F3C3E0
FCC3E0
FCC3E0
3F0380
3F0380
0FFC00
0FFC00
ENDCHAR
STARTCHAR 0050
ENCODING 80
SWIDTH 630 0
DWIDTH 21 0
BBX 21 27 -2 -6
BITMAP
0F0FE0
0F0FE0
FF3FF8
FF3FF8
FFFFF8
0FF3F8
0FF3F8
0F30F8
0F30F8
0F30F8
0F30F8
0F30F8
0F30F8
0F30F8
0F30F8
0FF0E0
0FF0E0
3FFF00
3FFF00
CF3C00
CF3C00
0F0000
0F0000
0F0000
0F0000
3C0000
3C0000
ENDCHAR
STARTCHAR 0051
ENCODING 81
SWIDTH 690 0
DWIDTH 23 0
BBX 21 25 0 -4
BITMAP
0CFF80
0CFF80
33CFE0
33CFE0
F3CFE0
F3C3E0
F3C3E0
F3C3E0
F3C3E0
F3F3E0
F3F3E0
F3C3E0
F3C3E0
F3C3E0
F3C3E0
FCC380
FCC380
3F0C00
3F0C00
0FFC18
0FFC18
00FFE0
00FFE0
003F80
003F80
ENDCHAR
STARTCHAR 0052
ENCODING 82
SWIDTH 690 0
DWIDTH 23 0
BBX 23 21 -2 0
BITMAP
000F00
000F00
0F3FE0
0F3FE0
3FFFE0
3FC3E0
3FC3E0
CF0300
CF0300
0FFC00
0FFC00
0F3F00
0F3F00
0F0F00
0F0F00
0F0FE6
0F0FE6
0F33F8
0F33F8
3FC3E0
3FC3E0
ENDCHAR
STARTCHAR 0053
ENCODING 83
SWIDTH 690 0
DWIDTH 23 0
BBX 21 21 0 0
BITMAP
0FF0E0
0FF0E0
3C3F80
3C3F80
3F3F80
3F0C00
3F0C00
0FFF80
0FFF80
00CFE0
00CFE0
0C03F8
0C03F8
3C00F8
3C00F8
FF00F8
FF00F8
0FC3E0
0FC3E0
03FF80
03FF80
ENDCHAR
STARTCHAR 0054
ENCODING 84
SWIDTH 630 0
DWIDTH 21 0
BBX 21 21 -2 0
BITMAP
0FC038
0FC038
3FFFE0
3FFFE0
FFFFE0
C3FF00
C3FF00
033000
033000
0F3000
0F3000
0F3000
0F3000
0F3000
0F3000
0F3000
0F3000
0FC0E0
0FC0E0
03FF00
03FF00
ENDCHAR
STARTCHAR 0055
ENCODING 85
SWIDTH 630 0
DWIDTH 21 0
BBX 21 21 -2 0
BITMAP
03C0F8
03C0F8
0FC3E0
0FC3E0
3FC3E0
3303E0
3303E0
CC03E0
CC03E0
0C03E0
0C03E0
3C03E0
3C03E0
3C03E0
3C03E0
3F03E0
3F03E0
0FCFF8
0FCFF8
03F3E0
03F3E0
ENDCHAR
STARTCHAR 0056
ENCODING 86
SWIDTH 630 0
DWIDTH 21 0
BBX 21 21 -2 0
BITMAP
0300F8
0300F8
3F03E0
3F03E0
FF03E0
CF03E0
CF03E0
CF03E0
CF03E0
0F03E0
0F03E0
0F0300
0F0300
0F0F00
0F0F00
0F0C00
0F0C00
0F3000
0F3000
3FC000
3FC000
ENDCHAR
STARTCHAR 0057
ENCODING 87
SWIDTH 930 0
DWIDTH 31 0
BBX 31 21 -2 0
BITMAP
0300F81E
0300F81E
3F03E078
3F03E078
FF03E078
CF03E078
CF03E078
CF03E078
CF03E078
CF03E078
CF03E078
0F03E060
0F03E060
0F0FE1E0
0F0FE1E0
0FCCF980
0FCCF980
03F0FE00
03F0FE00
00C03800
00C03800
ENDCHAR
STARTCHAR 0058
ENCODING 88
SWIDTH 690 0
DWIDTH 23 0
BBX 23 21 -2 0
BITMAP
3C0F38
3C0F38
FF0FE0
FF0FE0
FF3FE0
0F3C00
0F3C00
03F000
03F000
0FFF00
0FFF00
3FFC00
3FFC00
03F000
03F000
03FC06
03FC06
3F3FF8
3F3FF8
FC0FE0
FC0FE0
ENDCHAR
STARTCHAR 0059
ENCODING 89
SWIDTH 690 0
DWIDTH 23 0
BBX 23 29 -2 -8
BITMAP
0F003E
0F003E
FF00F8
FF00F8
FF00F8
0F00F8
0F00F8
0F00F8
0F00F8
0F00F8
0F00F8
0F00F8
0F00F8
0F00F8
0F00F8
0FC3F8
0FC3F8
03FCF8
03FCF8
00F0F8
00F0F8
0000F8
0000F8
0FF0F8
0FF0F8
3FFFE0
3FFFE0
C03F00
C03F00
ENDCHAR
STARTCHAR 005A
ENCODING 90
SWIDTH 690 0
DWIDTH 23 0
BBX 23 21 -2 0
BITMAP
03F03E
03F03E
0FFFF8
0FFFF8
3FFFF8
303FE0
303FE0
000C00
000C00
03FFE0
03FFE0
0FFF00
0FFF00
030000
030000
0FF006
0FF006
3FFFF8
3FFFF8
F00FE0
F00FE0
ENDCHAR
STARTCHAR 005B
ENCODING 91
SWIDTH 420 0
DWIDTH 14 0
BBX 12 27 0 -6
BITMAP
3FF0
3FF0
FFC0
FFC0
FFC0
3C00
3C00
3C00
3C00
3C00
3C00
3C00
3C00
3C00
3C00
3C00
3C00
3C00
3C00
3C00
3C00
3C00
3C00
3FF0
3FF0
FFC0
FFC0
ENDCHAR
STARTCHAR 005C
ENCODING 92
SWIDTH 420 0
DWIDTH 14 0
BBX 12 21 0 0
BITMAP
3C00
3C00
FC00
FC00
FC00
3C00
3C00
3F00
3F00
0F00
0F00
0F00
0F00
0FC0
0FC0
03C0
03C0
03F0
03F0
03C0
03C0
ENDCHAR
STARTCHAR 005D
ENCODING 93
SWIDTH 420 0
DWIDTH 14 0
BBX 12 27 0 -6
BITMAP
3FF0
3FF0
FFC0
FFC0
FFC0
03C0
03C0
03C0
03C0
03C0
03C0
03C0
03C0
03C0
03C0
03C0
03C0
03C0
03C0
03C0
03C0
03C0
03C0
3FF0
3FF0
FFC0
FFC0
ENDCHAR
STARTCHAR 005E
ENCODING 94
SWIDTH 420 0
DWIDTH 14 0
BBX 12 13 0 8
BITMAP
0F00
0F00
0F00
0F00
3FC0
33C0
33C0
33C0
33C0
C0F0
C0F0
C0F0
C0F0
ENDCHAR
STARTCHAR 005F
ENCODING 95
SWIDTH 630 0
DWIDTH 21 0
BBX 19 4 0 -6
BITMAP
3FFFE0
3FFFE0
FFFF80
FFFF80
ENDCHAR
STARTCHAR 0060
ENCODING 96
SWIDTH 240 0
DWIDTH 8 0
BBX 6 9 0 12
BITMAP
30
30
FC
FC
FC
3C
3C
30
30
ENDCHAR
STARTCHAR 0061
ENCODING 97
SWIDTH 510 0
DWIDTH 17 0
BBX 14 14 0 0
BITMAP
0F0C
0F0C
FFF0
FFF0
00F0
00F0
3CF0
3CF0
F3F0
F3F0
FCFC
FCFC
3F30
3F30
ENDCHAR
STARTCHAR 0062
ENCODING 98
SWIDTH 510 0
DWIDTH 17 0
BBX 14 21 0 0
BITMAP
3C00
3C00
F300
F300
F300
F000
F000
F3F0
F3F0
FCFC
FCFC
F03C
F03C
F03C
F03C
F03C
F03C
3C30
3C30
0FC0
0FC0
ENDCHAR
STARTCHAR 0063
ENCODING 99
SWIDTH 420 0
DWIDTH 14 0
BBX 12 14 0 0
BITMAP
0FC0
0FC0
30F0
30F0
F030
F030
F000
F000
F000
F000
FC30
FC30
3FC0
3FC0
ENDCHAR
STARTCHAR 0064
ENCODING 100
SWIDTH 420 0
DWIDTH 14 0
BBX 12 21 0 0
BITMAP
3000
3000
3C00
3C00
3F00
0F00
0F00
0FC0
0FC0
33F0
33F0
F0F0
F0F0
F0F0
F0F0
F0F0
F0F0
FCC0
FCC0
3F00
3F00
ENDCHAR
STARTCHAR 0065
ENCODING 101
SWIDTH 420 0
DWIDTH 14 0
BBX 12 14 0 0
BITMAP
0FC0
0FC0
33F0
33F0
F0C0
F0C0
F300
F300
FC00
FC00
FC30
FC30
3FC0
3FC0
ENDCHAR
STARTCHAR 0066
ENCODING 102
SWIDTH 420 0
DWIDTH 14 0
BBX 12 25 0 -4
BITMAP
03F0
03F0
0CF0
0CF0
3CF0
3C00
3C00
FFC0
FFC0
3C00
3C00
3C00
3C00
3C00
3C00
3C00
3C00
3C00
3C00
3F00
3F00
3C00
3C00
3000
3000
ENDCHAR
STARTCHAR 0067
ENCODING 103
SWIDTH 510 0
DWIDTH 17 0
BBX 14 20 0 -6
BITMAP
0FC0
0FC0
33FC
33FC
F0F0
F0F0
F0F0
F0F0
F0F0
F0F0
FCF0
FCF0
3FF0
3FF0
00F0
00F0
F0C0
F0C0
FF00
FF00
ENDCHAR
STARTCHAR 0068
ENCODING 104
SWIDTH 510 0
DWIDTH 17 0
BBX 16 25 -2 -4
BITMAP
0C00
0C00
3C00
3C00
FC00
FC00
FC00
3CFC
3CFC
3F3F
3F3F
3C0F
3C0F
3C0F
3C0F
3C0F
3C0F
3C0F
3C0F
3C0F
3C0F
000C
000C
0030
0030
ENDCHAR
STARTCHAR 0069
ENCODING 105
SWIDTH 240 0
DWIDTH 8 0
BBX 8 21 -2 0
BITMAP
0C
0C
3C
3C
3C
00
00
3C
3C
FC
FC
3C
3C
3C
3C
3C
3C
3F
3F
3C
3C
ENDCHAR
STARTCHAR 006A
ENCODING 106
SWIDTH 300 0
DWIDTH 10 0
BBX 8 27 0 -6
BITMAP
0C
0C
3C
3C
3C
00
00
3C
3C
FC
FC
3F
3F
0F
0F
0F
0F
0F
0F
0F
0F
3C
3C
30
30
C0
C0
ENDCHAR
STARTCHAR 006B
ENCODING 107
SWIDTH 630 0
DWIDTH 21 0
BBX 19 21 0 0
BITMAP
3F0000
3F0000
FC0000
FC0000
FC0000
3C0000
3C0000
3CFC00
3CFC00
3F3F80
3F3F80
3C3F80
3C3F80
3FFC00
3FFC00
3C3F80
3C3F80
3C0F80
3C0F80
FF0FE0
FF0FE0
ENDCHAR
STARTCHAR 006C
ENCODING 108
SWIDTH 240 0
DWIDTH 8 0
BBX 8 21 -2 0
BITMAP
3C
3C
FC
FC
FC
3C
3C
3C
3C
3C
3C
3C
3C
3C
3C
3C
3C
3F
3F
3C
3C
ENDCHAR
STARTCHAR 006D
ENCODING 109
SWIDTH 750 0
DWIDTH 25 0
BBX 25 14 -2 0
BITMAP
0CF0F800
0CF0F800
3F3F3E00
3F3F3E00
FC3C3E00
FC3C3E00
3C3C3E00
3C3C3E00
3C3C3E00
3C3C3E00
3F3F3F80
3F3F3F80
3C3C3E00
3C3C3E00
ENDCHAR
STARTCHAR 006E
ENCODING 110
SWIDTH 510 0
DWIDTH 17 0
BBX 16 14 -2 0
BITMAP
0CF0
0CF0
3F3C
3F3C
FC3C
FC3C
3C3C
3C3C
3C3C
3C3C
3F3F
3F3F
3C3C
3C3C
ENDCHAR
STARTCHAR 006F
ENCODING 111
SWIDTH 420 0
DWIDTH 14 0
BBX 12 14 0 0
BITMAP
0FC0
0FC0
33F0
33F0
F0F0
F0F0
F0F0
F0F0
F0F0
F0F0
FCC0
FCC0
3F00
3F00
ENDCHAR
STARTCHAR 0070
ENCODING 112
SWIDTH 510 0
DWIDTH 17 0
BBX 14 20 0 -6
BITMAP
03F0
03F0
0CFC
0CFC
3C3C
3C3C
FC3C
FC3C
3C3C
3C3C
FF30
FF30
3FC0
3FC0
3C00
3C00
3C00
3C00
3000
3000
ENDCHAR
STARTCHAR 0071
ENCODING 113
SWIDTH 510 0
DWIDTH 17 0
BBX 14 20 0 -6
BITMAP
0FC0
0FC0
33F0
33F0
F0F0
F0F0
F0F0
F0F0
F0F0
F0F0
FCF0
FCF0
3FF0
3FF0
00FC
00FC
00F0
00F0
00C0
00C0
ENDCHAR
STARTCHAR 0072
ENCODING 114
SWIDTH 420 0
DWIDTH 14 0
BBX 14 14 -2 0
BITMAP
0CFC
0CFC
3F3C
3F3C
FC30
FC30
3C00
3C00
3C00
3C00
3F00
3F00
3C00
3C00
ENDCHAR
STARTCHAR 0073
ENCODING 115
SWIDTH 420 0
DWIDTH 14 0
BBX 12 14 0 0
BITMAP
0FC0
0FC0
30F0
30F0
FC30
FC30
3FC0
3FC0
C3F0
C3F0
F0C0
F0C0
3F00
3F00
ENDCHAR
STARTCHAR 0074
ENCODING 116
SWIDTH 240 0
DWIDTH 8 0
BBX 8 21 -2 0
BITMAP
0C
0C
3C
3C
3C
3C
3C
FF
FF
3C
3C
3C
3C
3C
3C
3F
3F
3C
3C
30
30
ENDCHAR
STARTCHAR 0075
ENCODING 117
SWIDTH 570 0
DWIDTH 19 0
BBX 19 14 -2 0
BITMAP
0C03E0
0C03E0
3C0F00
3C0F00
FC0F00
FC0F00
3C0F00
3C0F00
3C3F00
3C3F00
3FCFE0
3FCFE0
0F0F00
0F0F00
ENDCHAR
STARTCHAR 0076
ENCODING 118
SWIDTH 510 0
DWIDTH 17 0
BBX 16 14 -2 0
BITMAP
0C3C
0C3C
3CCF
3CCF
FC0F
FC0F
3C0C
3C0C
3C30
3C30
3FC0
3FC0
0F00
0F00
ENDCHAR
STARTCHAR 0077
ENCODING 119
SWIDTH 690 0
DWIDTH 23 0
BBX 23 14 -2 0
BITMAP
0C0CF8
0C0CF8
3C3F3E
3C3F3E
FC3C3E
FC3C3E
3C3C38
3C3C38
3CFCE0
3CFCE0
3F3F00
3F3F00
0C0C00
0C0C00
ENDCHAR
STARTCHAR 0078
ENCODING 120
SWIDTH 570 0
DWIDTH 19 0
BBX 19 14 -2 0
BITMAP
0C03E0
0C03E0
3F0F00
3F0F00
CFF000
CFF000
03F000
03F000
03FCE0
03FCE0
3C3F00
3C3F00
F00C00
F00C00
ENDCHAR
STARTCHAR 0079
ENCODING 121
SWIDTH 420 0
DWIDTH 14 0
BBX 14 20 -2 -6
BITMAP
0C30
0C30
3CFC
3CFC
FC3C
FC3C
3C3C
3C3C
3C3C
3C3C
3F3C
3F3C
0FFC
0FFC
003C
003C
3C30
3C30
3FC0
3FC0
ENDCHAR
STARTCHAR 007A
ENCODING 122
SWIDTH 510 0
DWIDTH 17 0
BBX 16 14 -2 0
BITMAP
0F03
0F03
3FFC
3FFC
C0F0
C0F0
0300
0300
0F03
0F03
3FFC
3FFC
C0F0
C0F0
ENDCHAR
STARTCHAR 007B
ENCODING 123
SWIDTH 360 0
DWIDTH 12 0
BBX 12 27 -2 -6
BITMAP
03C0
03C0
0F00
0F00
0F00
0F00
0F00
0F00
0F00
0F00
0F00
0C00
0C00
F000
F000
3C00
3C00
0F00
0F00
0F00
0F00
0F00
0F00
0FF0
0FF0
03C0
03C0
ENDCHAR
STARTCHAR 007C
ENCODING 124
SWIDTH 240 0
DWIDTH 8 0
BBX 4 27 2 -6
BITMAP
30
30
F0
F0
F0
F0
F0
F0
F0
F0
F0
F0
F0
F0
F0
F0
F0
F0
F0
F0
F0
F0
F0
F0
F0
C0
C0
ENDCHAR
STARTCHAR 007D
ENCODING 125
SWIDTH 420 0
DWIDTH 14 0
BBX 12 27 0 -6
BITMAP
3C00
3C00
CF00
CF00
CF00
0F00
0F00
0F00
0F00
0F00
0F00
03C0
03C0
00F0
00F0
0300
0300
0F00
0F00
0F00
0F00
0F00
0F00
FF00
FF00
3C00
3C00
ENDCHAR
STARTCHAR 007E
ENCODING 126
SWIDTH 570 0
DWIDTH 19 0
BBX 17 6 0 6
BITMAP
0F0380
0F0380
3FFC00
3FFC00
C0F000
C0F000
ENDCHAR
STARTCHAR 00A0
ENCODING 160
SWIDTH 300 0
DWIDTH 10 0
BBX 0 0 0 0
BITMAP
ENDCHAR
STARTCHAR 00A1
ENCODING 161
SWIDTH 300 0
DWIDTH 10 0
BBX 6 27 2 -6
BITMAP
30
30
FC
FC
FC
30
30
00
00
30
30
F0
F0
F0
F0
F0
F0
F0
F0
F0
F0
FC
FC
F0
F0
C0
C0
ENDCHAR
STARTCHAR 00A2
ENCODING 162
SWIDTH 510 0
DWIDTH 17 0
BBX 14 25 0 -4
BITMAP
00C0
00C0
03C0
03C0
03C0
03C0
03C0
0FF0
0FF0
3FFC
3FFC
F3FC
F3FC
F3C0
F3C0
F3CC
F3CC
FFF0
FFF0
3FC0
3FC0
03C0
03C0
0300
0300
ENDCHAR
STARTCHAR 00A3
ENCODING 163
SWIDTH 630 0
DWIDTH 21 0
BBX 21 21 -2 0
BITMAP
00FC00
00FC00
033F00
033F00
0F3F00
0C0F00
0C0F00
3C0000
3C0000
0F0000
0F0000
3FF000
3FF000
0F0000
0F0000
0FF038
0FF038
3FFFE0
3FFFE0
FC3F00
FC3F00
ENDCHAR
STARTCHAR 00A4
ENCODING 164
SWIDTH 510 0
DWIDTH 17 0
BBX 14 15 0 2
BITMAP
F00C
F00C
F00C
FFF0
FFF0
3CF0
3CF0
3CF0
3CF0
3CF0
3CF0
3FFC
3FFC
C03C
C03C
ENDCHAR
STARTCHAR 00A5
ENCODING 165
SWIDTH 570 0
DWIDTH 19 0
BBX 19 21 -2 0
BITMAP
3C00E0
3C00E0
FC0300
FC0300
FF0F00
3F0C00
3F0C00
0F0C00
0F0C00
03F000
03F000
3FFF00
3FFF00
00C000
00C000
3FFF00
3FFF00
00C000
00C000
03C000
03C000
ENDCHAR
STARTCHAR 00A6
ENCODING 166
SWIDTH 240 0
DWIDTH 8 0
BBX 4 27 2 -6
BITMAP
30
30
F0
F0
F0
F0
F0
F0
F0
C0
C0
00
00
00
00
00
00
30
30
F0
F0
F0
F0
F0
F0
C0
C0
ENDCHAR
STARTCHAR 00A7
ENCODING 167
SWIDTH 510 0
DWIDTH 17 0
BBX 14 27 0 -6
BITMAP
0FC0
0FC0
3FF0
3FF0
3FF0
30F0
30F0
3C00
3C00
3FC0
3FC0
F0F0
F0F0
F03C
F03C
3C3C
3C3C
0FF0
0FF0
00F0
00F0
3C30
3C30
3FF0
3FF0
0FC0
0FC0
ENDCHAR
STARTCHAR 00A8
ENCODING 168
SWIDTH 300 0
DWIDTH 10 0
BBX 8 3 0 16
BITMAP
C3
C3
C3
ENDCHAR
STARTCHAR 00A9
ENCODING 169
SWIDTH 690 0
DWIDTH 23 0
BBX 21 21 0 0
BITMAP
03FF80
03FF80
0C03E0
0C03E0
3CF3F8
30F0F8
30F0F8
F3FCF8
F3FCF8
F3C0F8
F3C0F8
F3C0F8
F3C0F8
F3CCF8
F3CCF8
F0F0E0
F0F0E0
3C0380
3C0380
0FFC00
0FFC00
ENDCHAR
STARTCHAR 00AA
ENCODING 170
SWIDTH 300 0
DWIDTH 10 0
BBX 8 11 0 10
BITMAP
3C
3C
CF
CF
FF
3F
3F
CF
CF
33
33
ENDCHAR
STARTCHAR 00AB
ENCODING 171
SWIDTH 570 0
DWIDTH 19 0
BBX 17 10 0 2
BITMAP
0F0F80
0F0F80
3C3C00
3C3C00
F0F000
F0F000
3F3F80
3F3F80
0F0F80
0F0F80
ENDCHAR
STARTCHAR 00AC
ENCODING 172
SWIDTH 510 0
DWIDTH 17 0
BBX 14 8 0 6
BITMAP
3FFC
3FFC
FFFC
FFFC
003C
003C
0030
0030
ENDCHAR
STARTCHAR 00AE
ENCODING 174
SWIDTH 690 0
DWIDTH 23 0
BBX 21 21 0 0
BITMAP
03FF80
03FF80
0C03E0
0C03E0
3CF3F8
30F0F8
30F0F8
F3FCF8
F3FCF8
F3CCF8
F3CCF8
F3F0F8
F3F0F8
F3CCF8
F3CCF8
F3CCE0
F3CCE0
3C0380
3C0380
0FFC00
0FFC00
ENDCHAR
STARTCHAR 00AF
ENCODING 175
SWIDTH 570 0
DWIDTH 19 0
BBX 17 4 0 19
BITMAP
3FFF80
3FFF80
FFFC00
FFFC00
ENDCHAR
STARTCHAR 00B0
ENCODING 176
SWIDTH 360 0
DWIDTH 12 0
BBX 10 11 0 10
BITMAP
0F00
0F00
33C0
33C0
F3C0
F3C0
F3C0
F300
F300
3C00
3C00
ENDCHAR
STARTCHAR 00B1
ENCODING 177
SWIDTH 570 0
DWIDTH 19 0
BBX 17 21 0 0
BITMAP
00C000
00C000
03C000
03C000
03C000
03C000
03C000
3FFF80
3FFF80
FFFC00
FFFC00
03C000
03C000
03C000
03C000
030000
030000
3FFF80
3FFF80
FFFC00
FFFC00
ENDCHAR
STARTCHAR 00B2
ENCODING 178
SWIDTH 300 0
DWIDTH 10 0
BBX 8 11 0 10
BITMAP
3C
3C
C3
C3
CF
0C
0C
30
30
FF
FF
ENDCHAR
STARTCHAR 00B3
ENCODING 179
SWIDTH 300 0
DWIDTH 10 0
BBX 8 11 0 10
BITMAP
3C
3C
C3
C3
CF
0C
0C
C3
C3
3C
3C
ENDCHAR
STARTCHAR 00B4
ENCODING 180
SWIDTH 300 0
DWIDTH 10 0
BBX 6 5 2 16
BITMAP
3C
3C
F0
F0
F0
ENDCHAR
STARTCHAR 00B5
ENCODING 181
SWIDTH 570 0
DWIDTH 19 0
BBX 15 18 2 -4
BITMAP
3030
3030
F0F0
F0F0
F0F0
F0F0
F0F0
F0F0
F0F0
F0F0
F0FE
F0FE
FF30
FF30
F000
F000
C000
C000
ENDCHAR
STARTCHAR 00B6
ENCODING 182
SWIDTH 510 0
DWIDTH 17 0
BBX 14 25 0 -4
BITMAP
3FFC
3FFC
FF30
FF30
FF30
FF30
FF30
FF30
FF30
FF30
FF30
3F30
3F30
0330
0330
0330
0330
0330
0330
0330
0330
0330
0330
0330
0330
ENDCHAR
STARTCHAR 00B7
ENCODING 183
SWIDTH 300 0
DWIDTH 10 0
BBX 6 6 2 8
BITMAP
30
30
FC
FC
30
30
ENDCHAR
STARTCHAR 00B8
ENCODING 184
SWIDTH 300 0
DWIDTH 10 0
BBX 8 8 0 -6
BITMAP
30
30
3C
3C
0F
0F
FC
FC
ENDCHAR
STARTCHAR 00B9
ENCODING 185
SWIDTH 240 0
DWIDTH 8 0
BBX 4 9 2 12
BITMAP
30
30
F0
F0
F0
30
30
30
30
ENDCHAR
STARTCHAR 00BA
ENCODING 186
SWIDTH 360 0
DWIDTH 12 0
BBX 10 13 0 8
BITMAP
0F00
0F00
33C0
33C0
F3C0
F3C0
F3C0
F3C0
F3C0
F300
F300
3C00
3C00
ENDCHAR
STARTCHAR 00BB
ENCODING 187
SWIDTH 570 0
DWIDTH 19 0
BBX 17 10 0 2
BITMAP
F0F000
F0F000
FCFC00
FCFC00
0F0F80
0F0F80
3C3C00
3C3C00
F0F000
F0F000
ENDCHAR
STARTCHAR 00BC
ENCODING 188
SWIDTH 690 0
DWIDTH 23 0
BBX 19 21 2 0
BITMAP
303E00
303E00
F0F000
F0F000
F0F000
30F000
30F000
30C000
30C000
33C000
33C000
03C380
03C380
030F80
030F80
0F3380
0F3380
0C3FE0
0C3FE0
300380
300380
ENDCHAR
STARTCHAR 00BD
ENCODING 189
SWIDTH 750 0
DWIDTH 25 0
BBX 21 21 2 0
BITMAP
303E00
303E00
F0F000
F0F000
F0F000
30F000
30F000
30C000
30C000
33C000
33C000
03C3E0
03C3E0
030E18
030E18
0F0060
0F0060
0C0380
0C0380
300FF8
300FF8
ENDCHAR
STARTCHAR 00BE
ENCODING 190
SWIDTH 690 0
DWIDTH 23 0
BBX 21 21 0 0
BITMAP
3C0F80
3C0F80
C33C00
C33C00
CF3C00
0C3C00
0C3C00
C33000
C33000
3CF000
3CF000
00F0E0
00F0E0
00C3E0
00C3E0
03CCE0
03CCE0
030FF8
030FF8
0C00E0
0C00E0
ENDCHAR
STARTCHAR 00BF
ENCODING 191
SWIDTH 570 0
DWIDTH 19 0
BBX 15 27 2 -6
BITMAP
0C00
0C00
3F00
3F00
3F00
0C00
0C00
0000
0000
0C00
0C00
3F00
3F00
0FC0
0FC0
0F00
0F00
3000
3000
F000
F000
F00E
F00E
3FF0
3FF0
0FC0
0FC0
ENDCHAR
STARTCHAR 00C0
ENCODING 192
SWIDTH 630 0
DWIDTH 21 0
BBX 19 25 0 0
BITMAP
00F000
00F000
003C00
003C00
000000
000000
0FFFE0
0FFFE0
3FFFE0
3CFF80
3CFF80
C0FF80
C0FF80
C3CF80
C3CF80
03CF80
03CF80
0FFF80
0FFF80
0F0F80
0F0F80
3C0FE0
3C0FE0
3C3F80
3C3F80
ENDCHAR
STARTCHAR 00C1
ENCODING 193
SWIDTH 630 0
DWIDTH 21 0
BBX 19 25 0 0
BITMAP
003C00
003C00
00F000
00F000
000000
000000
0FFFE0
0FFFE0
3FFFE0
3CFF80
3CFF80
C0FF80
C0FF80
C3CF80
C3CF80
03CF80
03CF80
0FFF80
0FFF80
0F0F80
0F0F80
3C0FE0
3C0FE0
3C3F80
3C3F80
ENDCHAR
STARTCHAR 00C2
ENCODING 194
SWIDTH 630 0
DWIDTH 21 0
BBX 19 25 0 0
BITMAP
00F000
00F000
030C00
030C00
000000
000000
0FFFE0
0FFFE0
3FFFE0
3CFF80
3CFF80
C0FF80
C0FF80
C3CF80
C3CF80
03CF80
03CF80
0FFF80
0FFF80
0F0F80
0F0F80
3C0FE0
3C0FE0
3C3F80
3C3F80
ENDCHAR
STARTCHAR 00C3
ENCODING 195
SWIDTH 630 0
DWIDTH 21 0
BBX 19 25 0 0
BITMAP
03C380
03C380
0C3C00
0C3C00
000000
000000
0FFFE0
0FFFE0
3FFFE0
3CFF80
3CFF80
C0FF80
C0FF80
C3CF80
C3CF80
03CF80
03CF80
0FFF80
0FFF80
0F0F80
0F0F80
3C0FE0
3C0FE0
3C3F80
3C3F80
ENDCHAR
STARTCHAR 00C4
ENCODING 196
SWIDTH 630 0
DWIDTH 21 0
BBX 19 23 0 0
BITMAP
030C00
030C00
000000
000000
0FFFE0
0FFFE0
3FFFE0
3CFF80
3CFF80
C0FF80
C0FF80
C3CF80
C3CF80
03CF80
03CF80
0FFF80
0FFF80
0F0F80
0F0F80
3C0FE0
3C0FE0
3C3F80
3C3F80
ENDCHAR
STARTCHAR 00C5
ENCODING 197
SWIDTH 630 0
DWIDTH 21 0
BBX 19 25 0 0
BITMAP
003C00
003C00
00C380
00C380
00C380
00C380
0FFFE0
0FFFE0
3FFFE0
3CFF80
3CFF80
C0FF80
C0FF80
C3CF80
C3CF80
03CF80
03CF80
0FFF80
0FFF80
0F0F80
0F0F80
3C0FE0
3C0FE0
3C3F80
3C3F80
ENDCHAR
STARTCHAR 00C6
ENCODING 198
SWIDTH 870 0
DWIDTH 29 0
BBX 27 21 0 0
BITMAP
0FFFFFE0
0FFFFFE0
3CFFFF80
3CFFFF80
FCFFFF80
C0FF8000
C0FF8000
C3CF8000
C3CF8000
03CFFE00
03CFFE00
0FFF8000
0FFF8000
0F0F8000
0F0F8000
3C0F8000
3C0F8000
3C0FFFE0
3C0FFFE0
F03FFF80
F03FFF80
ENDCHAR
STARTCHAR 00C7
ENCODING 199
SWIDTH 630 0
DWIDTH 21 0
BBX 19 27 0 -6
BITMAP
03F0E0
03F0E0
33FF80
33FF80
F3FF80
F3C000
F3C000
F3C000
F3C000
F3C000
F3C000
F30000
F30000
F30000
F30000
3C00E0
3C00E0
3FFF80
3FFF80
0FFC00
0FFC00
00F000
00F000
003C00
003C00
03F000
03F000
ENDCHAR
STARTCHAR 00C8
ENCODING 200
SWIDTH 570 0
DWIDTH 19 0
BBX 17 25 0 0
BITMAP
03C000
03C000
00F000
00F000
000000
000000
0CFF80
0CFF80
3FFF80
33FC00
33FC00
F30000
F30000
F3FC00
F3FC00
F3F000
F3F000
F30000
F30000
FC0380
FC0380
3FFF80
3FFF80
0FFC00
0FFC00
ENDCHAR
STARTCHAR 00C9
ENCODING 201
SWIDTH 570 0
DWIDTH 19 0
BBX 17 25 0 0
BITMAP
003C00
003C00
00F000
00F000
000000
000000
0CFF80
0CFF80
3FFF80
33FC00
33FC00
F30000
F30000
F3FC00
F3FC00
F3F000
F3F000
F30000
F30000
FC0380
FC0380
3FFF80
3FFF80
0FFC00
0FFC00
ENDCHAR
STARTCHAR 00CA
ENCODING 202
SWIDTH 570 0
DWIDTH 19 0
BBX 17 25 0 0
BITMAP
00F000
00F000
030C00
030C00
000000
000000
0CFF80
0CFF80
3FFF80
33FC00
33FC00
F30000
F30000
F3FC00
F3FC00
F3F000
F3F000
F30000
F30000
FC0380
FC0380
3FFF80
3FFF80
0FFC00
0FFC00
ENDCHAR
STARTCHAR 00CB
ENCODING 203
SWIDTH 570 0
DWIDTH 19 0
BBX 17 23 0 0
BITMAP
030C00
030C00
000000
000000
0CFF80
0CFF80
3FFF80
33FC00
33FC00
F30000
F30000
F3FC00
F3FC00
F3F000
F3F000
F30000
F30000
FC0380
FC0380
3FFF80
3FFF80
0FFC00
0FFC00
ENDCHAR
STARTCHAR 00CC
ENCODING 204
SWIDTH 570 0
DWIDTH 19 0
BBX 19 25 -2 0
BITMAP
03C000
03C000
00F000
00F000
000000
000000
3FC0E0
3FC0E0
FFFFE0
C3FF00
C3FF00
033C00
033C00
033C00
033C00
033C00
033C00
033C00
033C00
003C00
003C00
0FFF00
0FFF00
30FC00
30FC00
ENDCHAR
STARTCHAR 00CD
ENCODING 205
SWIDTH 570 0
DWIDTH 19 0
BBX 19 25 -2 0
BITMAP
003C00
003C00
00F000
00F000
000000
000000
3FC0E0
3FC0E0
FFFFE0
C3FF00
C3FF00
033C00
033C00
033C00
033C00
033C00
033C00
033C00
033C00
003C00
003C00
0FFF00
0FFF00
30FC00
30FC00
ENDCHAR
STARTCHAR 00CE
ENCODING 206
SWIDTH 570 0
DWIDTH 19 0
BBX 19 25 -2 0
BITMAP
00F000
00F000
030C00
030C00
000000
000000
3FC0E0
3FC0E0
FFFFE0
C3FF00
C3FF00
033C00
033C00
033C00
033C00
033C00
033C00
033C00
033C00
003C00
003C00
0FFF00
0FFF00
30FC00
30FC00
ENDCHAR
STARTCHAR 00CF
ENCODING 207
SWIDTH 570 0
DWIDTH 19 0
BBX 19 23 -2 0
BITMAP
030C00
030C00
000000
000000
3FC0E0
3FC0E0
FFFFE0
C3FF00
C3FF00
033C00
033C00
033C00
033C00
033C00
033C00
033C00
033C00
003C00
003C00
0FFF00
0FFF00
30FC00
30FC00
ENDCHAR
STARTCHAR 00D0
ENCODING 208
SWIDTH 630 0
DWIDTH 21 0
BBX 21 21 -2 0
BITMAP
0FFF00
0FFF00
3FFFE0
3FFFE0
FFFFF8
C033F8
C033F8
0330F8
0330F8
0F30F8
0F30F8
3FFCF8
3FFCF8
0F30F8
0F30F8
0F30F8
0F30F8
0C33E0
0C33E0
33FF00
33FF00
ENDCHAR
STARTCHAR 00D1
ENCODING 209
SWIDTH 750 0
DWIDTH 25 0
BBX 25 25 -2 0
BITMAP
00F0E000
00F0E000
030F0000
030F0000
00000000
00000000
030FE000
030FE000
0F3FF800
0F3FF800
0F3FF800
33C3F800
33C3F800
F3C0F800
F3C0F800
F3C0F800
F3C0F800
33C0F800
33C0F800
03C0E180
03C0E180
3FC3FE00
3FC3FE00
C30FF800
C30FF800
ENDCHAR
STARTCHAR 00D2
ENCODING 210
SWIDTH 630 0
DWIDTH 21 0
BBX 19 25 0 0
BITMAP
00F000
00F000
003C00
003C00
000000
000000
0CFF80
0CFF80
3FFFE0
33CFE0
33CFE0
F3C3E0
F3C3E0
F3F3E0
F3F3E0
F3C3E0
F3C3E0
F3C3E0
F3C3E0
FCC3E0
FCC3E0
3F0380
3F0380
0FFC00
0FFC00
ENDCHAR
STARTCHAR 00D3
ENCODING 211
SWIDTH 630 0
DWIDTH 21 0
BBX 19 25 0 0
BITMAP
003C00
003C00
00F000
00F000
000000
000000
0CFF80
0CFF80
3FFFE0
33CFE0
33CFE0
F3C3E0
F3C3E0
F3F3E0
F3F3E0
F3C3E0
F3C3E0
F3C3E0
F3C3E0
FCC3E0
FCC3E0
3F0380
3F0380
0FFC00
0FFC00
ENDCHAR
STARTCHAR 00D4
ENCODING 212
SWIDTH 630 0
DWIDTH 21 0
BBX 19 25 0 0
BITMAP
00F000
00F000
030C00
030C00
000000
000000
0CFF80
0CFF80
3FFFE0
33CFE0
33CFE0
F3C3E0
F3C3E0
F3F3E0
F3F3E0
F3C3E0
F3C3E0
F3C3E0
F3C3E0
FCC3E0
FCC3E0
3F0380
3F0380
0FFC00
0FFC00
ENDCHAR
STARTCHAR 00D5
ENCODING 213
SWIDTH 630 0
DWIDTH 21 0
BBX 19 25 0 0
BITMAP
03C380
03C380
0C3C00
0C3C00
000000
000000
0CFF80
0CFF80
3FFFE0
33CFE0
33CFE0
F3C3E0
F3C3E0
F3F3E0
F3F3E0
F3C3E0
F3C3E0
F3C3E0
F3C3E0
FCC3E0
FCC3E0
3F0380
3F0380
0FFC00
0FFC00
ENDCHAR
STARTCHAR 00D6
ENCODING 214
SWIDTH 630 0
DWIDTH 21 0
BBX 19 23 0 0
BITMAP
030C00
030C00
000000
000000
0CFF80
0CFF80
3FFFE0
33CFE0
33CFE0
F3C3E0
F3C3E0
F3F3E0
F3F3E0
F3C3E0
F3C3E0
F3C3E0
F3C3E0
FCC3E0
FCC3E0
3F0380
3F0380
0FFC00
0FFC00
ENDCHAR
STARTCHAR 00D7
ENCODING 215
SWIDTH 510 0
DWIDTH 17 0
BBX 12 10 2 4
BITMAP
F030
F030
3CC0
3CC0
0F00
0F00
33C0
33C0
C0F0
C0F0
ENDCHAR
STARTCHAR 00D8
ENCODING 216
SWIDTH 690 0
DWIDTH 23 0
BBX 21 21 0 0
BITMAP
03FF98
03FF98
0C03E0
0C03E0
3C03F8
3003F8
3003F8
F00CF8
F00CF8
F030F8
F030F8
F0C0F8
F0C0F8
F300F8
F300F8
FC00E0
FC00E0
3C0380
3C0380
CFFC00
CFFC00
ENDCHAR
STARTCHAR 00D9
ENCODING 217
SWIDTH 630 0
DWIDTH 21 0
BBX 21 25 -2 0
BITMAP
00F000
00F000
003C00
003C00
000000
000000
03C0F8
03C0F8
0FC3F8
0FC3E0
0FC3E0
3F03E0
3F03E0
CC03E0
CC03E0
3C03E0
3C03E0
3C03E0
3C03E0
3F03E0
3F03E0
0FCFF8
0FCFF8
03F3E0
03F3E0
ENDCHAR
STARTCHAR 00DA
ENCODING 218
SWIDTH 630 0
DWIDTH 21 0
BBX 21 25 -2 0
BITMAP
000F00
000F00
003C00
003C00
000000
000000
03C0F8
03C0F8
0FC3F8
0FC3E0
0FC3E0
3F03E0
3F03E0
CC03E0
CC03E0
3C03E0
3C03E0
3C03E0
3C03E0
3F03E0
3F03E0
0FCFF8
0FCFF8
03F3E0
03F3E0
ENDCHAR
STARTCHAR 00DB
ENCODING 219
SWIDTH 630 0
DWIDTH 21 0
BBX 21 25 -2 0
BITMAP
003C00
003C00
00C300
00C300
000000
000000
03C0F8
03C0F8
0FC3F8
0FC3E0
0FC3E0
3F03E0
3F03E0
CC03E0
CC03E0
3C03E0
3C03E0
3C03E0
3C03E0
3F03E0
3F03E0
0FCFF8
0FCFF8
03F3E0
03F3E0
ENDCHAR
STARTCHAR 00DC
ENCODING 220
SWIDTH 630 0
DWIDTH 21 0
BBX 21 23 -2 0
BITMAP
00C300
00C300
000000
000000
03C0F8
03C0F8
0FC3F8
0FC3E0
0FC3E0
3F03E0
3F03E0
CC03E0
CC03E0
3C03E0
3C03E0
3C03E0
3C03E0
3F03E0
3F03E0
0FCFF8
0FCFF8
03F3E0
03F3E0
ENDCHAR
STARTCHAR 00DD
ENCODING 221
SWIDTH 690 0
DWIDTH 23 0
BBX 23 33 -2 -8
BITMAP
000F00
000F00
003C00
003C00
0F003E
0F003E
FF00F8
FF00F8
FF00F8
0F00F8
0F00F8
0F00F8
0F00F8
0F00F8
0F00F8
0F00F8
0F00F8
0F00F8
0F00F8
0FC3F8
0FC3F8
03FCF8
03FCF8
00F0F8
00F0F8
0000F8
0000F8
0FF0F8
0FF0F8
3FFFE0
3FFFE0
C03F00
C03F00
ENDCHAR
STARTCHAR 00DE
ENCODING 222
SWIDTH 570 0
DWIDTH 19 0
BBX 17 21 0 0
BITMAP
300000
300000
F00000
F00000
FFF000
FFF000
FFF000
FFFC00
FFFC00
F00F80
F00F80
F00380
F00380
FFFC00
FFFC00
FFF000
FFF000
F00000
F00000
C00000
C00000
ENDCHAR
STARTCHAR 00DF
ENCODING 223
SWIDTH 570 0
DWIDTH 19 0
BBX 17 21 0 0
BITMAP
03C000
03C000
0CF000
0CF000
3CF000
303000
303000
F03000
F03000
F0F000
F0F000
F0FC00
F0FC00
F03F80
F03F80
F00F80
F00F80
F3CC00
F3CC00
F3F000
F3F000
ENDCHAR
STARTCHAR 00E0
ENCODING 224
SWIDTH 510 0
DWIDTH 17 0
BBX 14 21 0 0
BITMAP
0F00
0F00
03C0
03C0
03C0
0000
0000
0F0C
0F0C
FFF0
FFF0
00F0
00F0
3CF0
3CF0
F3F0
F3F0
FCFC
FCFC
3F30
3F30
ENDCHAR
STARTCHAR 00E1
ENCODING 225
SWIDTH 510 0
DWIDTH 17 0
BBX 14 21 0 0
BITMAP
03C0
03C0
0F00
0F00
0F00
0000
0000
0F0C
0F0C
FFF0
FFF0
00F0
00F0
3CF0
3CF0
F3F0
F3F0
FCFC
FCFC
3F30
3F30
ENDCHAR
STARTCHAR 00E2
ENCODING 226
SWIDTH 510 0
DWIDTH 17 0
BBX 14 21 0 0
BITMAP
03C0
03C0
0C30
0C30
0C30
0000
0000
0F0C
0F0C
FFF0
FFF0
00F0
00F0
3CF0
3CF0
F3F0
F3F0
FCFC
FCFC
3F30
3F30
ENDCHAR
STARTCHAR 00E3
ENCODING 227
SWIDTH 510 0
DWIDTH 17 0
BBX 14 21 0 0
BITMAP
0F0C
0F0C
30F0
30F0
30F0
0000
0000
0F0C
0F0C
FFF0
FFF0
00F0
00F0
3CF0
3CF0
F3F0
F3F0
FCFC
FCFC
3F30
3F30
ENDCHAR
STARTCHAR 00E4
ENCODING 228
SWIDTH 510 0
DWIDTH 17 0
BBX 14 19 0 0
BITMAP
0C30
0C30
0C30
0000
0000
0F0C
0F0C
FFF0
FFF0
00F0
00F0
3CF0
3CF0
F3F0
F3F0
FCFC
FCFC
3F30
3F30
ENDCHAR
STARTCHAR 00E5
ENCODING 229
SWIDTH 510 0
DWIDTH 17 0
BBX 14 25 0 0
BITMAP
03C0
03C0
0C30
0C30
0C30
0C30
03C0
03C0
03C0
0000
0000
0F0C
0F0C
FFF0
FFF0
00F0
00F0
3CF0
3CF0
F3F0
F3F0
FCFC
FCFC
3F30
3F30
ENDCHAR
STARTCHAR 00E6
ENCODING 230
SWIDTH 690 0
DWIDTH 23 0
BBX 21 14 0 0
BITMAP
0F0FE0
0F0FE0
FFF3F8
FFF3F8
00F0E0
00F0E0
3CF380
3CF380
F3FC00
F3FC00
FCFC18
FCFC18
3F3FE0
3F3FE0
ENDCHAR
STARTCHAR 00E7
ENCODING 231
SWIDTH 420 0
DWIDTH 14 0
BBX 12 20 0 -6
BITMAP
0FC0
0FC0
30F0
30F0
F030
F030
F000
F000
F000
F000
FC30
FC30
3FC0
3FC0
0F00
0F00
03C0
03C0
0F00
0F00
ENDCHAR
STARTCHAR 00E8
ENCODING 232
SWIDTH 420 0
DWIDTH 14 0
BBX 12 21 0 0
BITMAP
0F00
0F00
03C0
03C0
03C0
0000
0000
0FC0
0FC0
33F0
33F0
F0C0
F0C0
F300
F300
FC00
FC00
FC30
FC30
3FC0
3FC0
ENDCHAR
STARTCHAR 00E9
ENCODING 233
SWIDTH 420 0
DWIDTH 14 0
BBX 12 21 0 0
BITMAP
03C0
03C0
0F00
0F00
0F00
0000
0000
0FC0
0FC0
33F0
33F0
F0C0
F0C0
F300
F300
FC00
FC00
FC30
FC30
3FC0
3FC0
ENDCHAR
STARTCHAR 00EA
ENCODING 234
SWIDTH 420 0
DWIDTH 14 0
BBX 12 21 0 0
BITMAP
03C0
03C0
0C30
0C30
0C30
0000
0000
0FC0
0FC0
33F0
33F0
F0C0
F0C0
F300
F300
FC00
FC00
FC30
FC30
3FC0
3FC0
ENDCHAR
STARTCHAR 00EB
ENCODING 235
SWIDTH 420 0
DWIDTH 14 0
BBX 12 19 0 0
BITMAP
30C0
30C0
30C0
0000
0000
0FC0
0FC0
33F0
33F0
F0C0
F0C0
F300
F300
FC00
FC00
FC30
FC30
3FC0
3FC0
ENDCHAR
STARTCHAR 00EC
ENCODING 236
SWIDTH 240 0
DWIDTH 8 0
BBX 8 21 -2 0
BITMAP
F0
F0
3C
3C
3C
00
00
3C
3C
FC
FC
3C
3C
3C
3C
3C
3C
3F
3F
3C
3C
ENDCHAR
STARTCHAR 00ED
ENCODING 237
SWIDTH 240 0
DWIDTH 8 0
BBX 8 21 -2 0
BITMAP
0F
0F
3C
3C
3C
00
00
3C
3C
FC
FC
3C
3C
3C
3C
3C
3C
3F
3F
3C
3C
ENDCHAR
STARTCHAR 00EE
ENCODING 238
SWIDTH 240 0
DWIDTH 8 0
BBX 8 21 -2 0
BITMAP
3C
3C
C3
C3
C3
00
00
3C
3C
FC
FC
3C
3C
3C
3C
3C
3C
3F
3F
3C
3C
ENDCHAR
STARTCHAR 00EF
ENCODING 239
SWIDTH 240 0
DWIDTH 8 0
BBX 8 19 -2 0
BITMAP
C3
C3
C3
00
00
3C
3C
FC
FC
3C
3C
3C
3C
3C
3C
3F
3F
3C
3C
ENDCHAR
STARTCHAR 00F0
ENCODING 240
SWIDTH 510 0
DWIDTH 17 0
BBX 14 21 0 0
BITMAP
3C30
3C30
0FC0
0FC0
3FC0
3FC0
3FC0
0FF0
0FF0
30FC
30FC
F03C
F03C
F03C
F03C
F03C
F03C
FC30
FC30
3FC0
3FC0
ENDCHAR
STARTCHAR 00F1
ENCODING 241
SWIDTH 510 0
DWIDTH 17 0
BBX 16 21 -2 0
BITMAP
0F0C
0F0C
30F0
30F0
30F0
0000
0000
0CF0
0CF0
3F3C
3F3C
FC3C
FC3C
3C3C
3C3C
3C3C
3C3C
3F3F
3F3F
3C3C
3C3C
ENDCHAR
STARTCHAR 00F2
ENCODING 242
SWIDTH 420 0
DWIDTH 14 0
BBX 12 21 0 0
BITMAP
0F00
0F00
03C0
03C0
03C0
0000
0000
0FC0
0FC0
33F0
33F0
F0F0
F0F0
F0F0
F0F0
F0F0
F0F0
FCC0
FCC0
3F00
3F00
ENDCHAR
STARTCHAR 00F3
ENCODING 243
SWIDTH 420 0
DWIDTH 14 0
BBX 12 21 0 0
BITMAP
03C0
03C0
0F00
0F00
0F00
0000
0000
0FC0
0FC0
33F0
33F0
F0F0
F0F0
F0F0
F0F0
F0F0
F0F0
FCC0
FCC0
3F00
3F00
ENDCHAR
STARTCHAR 00F4
ENCODING 244
SWIDTH 420 0
DWIDTH 14 0
BBX 12 21 0 0
BITMAP
0F00
0F00
30C0
30C0
30C0
0000
0000
0FC0
0FC0
33F0
33F0
F0F0
F0F0
F0F0
F0F0
F0F0
F0F0
FCC0
FCC0
3F00
3F00
ENDCHAR
STARTCHAR 00F5
ENCODING 245
SWIDTH 420 0
DWIDTH 14 0
BBX 12 21 0 0
BITMAP
3C30
3C30
C3C0
C3C0
C3C0
0000
0000
0FC0
0FC0
33F0
33F0
F0F0
F0F0
F0F0
F0F0
F0F0
F0F0
FCC0
FCC0
3F00
3F00
ENDCHAR
STARTCHAR 00F6
ENCODING 246
SWIDTH 420 0
DWIDTH 14 0
BBX 12 19 0 0
BITMAP
30C0
30C0
30C0
0000
0000
0FC0
0FC0
33F0
33F0
F0F0
F0F0
F0F0
F0F0
F0F0
F0F0
FCC0
FCC0
3F00
3F00
ENDCHAR
STARTCHAR 00F7
ENCODING 247
SWIDTH 570 0
DWIDTH 19 0
BBX 17 17 0 2
BITMAP
03C000
03C000
03C000
03C000
03C000
000000
000000
3FFF80
3FFF80
FFFC00
FFFC00
000000
000000
03C000
03C000
03C000
03C000
ENDCHAR
STARTCHAR 00F8
ENCODING 248
SWIDTH 510 0
DWIDTH 17 0
BBX 14 16 0 -2
BITMAP
0FCC
0FCC
33F0
33F0
F3F0
F3F0
F3F0
F3F0
FCF0
FCF0
FCC0
FCC0
3F00
3F00
C000
C000
ENDCHAR
STARTCHAR 00F9
ENCODING 249
SWIDTH 570 0
DWIDTH 19 0
BBX 19 21 -2 0
BITMAP
03C000
03C000
00F000
00F000
00F000
000000
000000
0C03E0
0C03E0
3C0F00
3C0F00
FC0F00
FC0F00
3C0F00
3C0F00
3C3F00
3C3F00
3FCFE0
3FCFE0
0F0F00
0F0F00
ENDCHAR
STARTCHAR 00FA
ENCODING 250
SWIDTH 570 0
DWIDTH 19 0
BBX 19 21 -2 0
BITMAP
003C00
003C00
00F000
00F000
00F000
000000
000000
0C03E0
0C03E0
3C0F00
3C0F00
FC0F00
FC0F00
3C0F00
3C0F00
3C3F00
3C3F00
3FCFE0
3FCFE0
0F0F00
0F0F00
ENDCHAR
STARTCHAR 00FB
ENCODING 251
SWIDTH 570 0
DWIDTH 19 0
BBX 19 21 -2 0
BITMAP
00F000
00F000
030C00
030C00
030C00
000000
000000
0C03E0
0C03E0
3C0F00
3C0F00
FC0F00
FC0F00
3C0F00
3C0F00
3C3F00
3C3F00
3FCFE0
3FCFE0
0F0F00
0F0F00
ENDCHAR
STARTCHAR 00FC
ENCODING 252
SWIDTH 570 0
DWIDTH 19 0
BBX 19 19 -2 0
BITMAP
030C00
030C00
030C00
000000
000000
0C03E0
0C03E0
3C0F00
3C0F00
FC0F00
FC0F00
3C0F00
3C0F00
3C3F00
3C3F00
3FCFE0
3FCFE0
0F0F00
0F0F00
ENDCHAR
STARTCHAR 00FD
ENCODING 253
SWIDTH 420 0
DWIDTH 14 0
BBX 14 27 -2 -6
BITMAP
00F0
00F0
03C0
03C0
03C0
0000
0000
0C30
0C30
3CFC
3CFC
FC3C
FC3C
3C3C
3C3C
3C3C
3C3C
3F3C
3F3C
0FFC
0FFC
003C
003C
3C30
3C30
3FC0
3FC0
ENDCHAR
STARTCHAR 00FE
ENCODING 254
SWIDTH 420 0
DWIDTH 14 0
BBX 12 27 0 -6
BITMAP
3000
3000
F000
F000
F000
F000
F000
FFC0
FFC0
F3F0
F3F0
F0F0
F0F0
F0F0
F0F0
F0F0
F0F0
FCC0
FCC0
FF00
FF00
F000
F000
F000
F000
C000
C000
ENDCHAR
STARTCHAR 00FF
ENCODING 255
SWIDTH 420 0
DWIDTH 14 0
BBX 14 25 -2 -6
BITMAP
0C30
0C30
0C30
0000
0000
0C30
0C30
3CFC
3CFC
FC3C
FC3C
3C3C
3C3C
3C3C
3C3C
3F3C
3F3C
0FFC
0FFC
003C
003C
3C30
3C30
3FC0
3FC0
ENDCHAR
STARTCHAR 0100
ENCODING 256
SWIDTH 630 0
DWIDTH 21 0
BBX 19 23 0 0
BITMAP
03FF80
03FF80
000000
000000
0FFFE0
0FFFE0
3FFFE0
3CFF80
3CFF80
C0FF80
C0FF80
C3CF80
C3CF80
03CF80
03CF80
0FFF80
0FFF80
0F0F80
0F0F80
3C0FE0
3C0FE0
3C3F80
3C3F80
ENDCHAR
STARTCHAR 0101
ENCODING 257
SWIDTH 510 0
DWIDTH 17 0
BBX 14 19 0 0
BITMAP
3FF0
3FF0
3FF0
0000
0000
0F0C
0F0C
FFF0
FFF0
00F0
00F0
3CF0
3CF0
F3F0
F3F0
FCFC
FCFC
3F30
3F30
ENDCHAR
STARTCHAR 0102
ENCODING 258
SWIDTH 630 0
DWIDTH 21 0
BBX 19 25 0 0
BITMAP
030380
030380
00FC00
00FC00
000000
000000
0FFFE0
0FFFE0
3FFFE0
3CFF80
3CFF80
C0FF80
C0FF80
C3CF80
C3CF80
03CF80
03CF80
0FFF80
0FFF80
0F0F80
0F0F80
3C0FE0
3C0FE0
3C3F80
3C3F80
ENDCHAR
STARTCHAR 0103
ENCODING 259
SWIDTH 510 0
DWIDTH 17 0
BBX 14 21 0 0
BITMAP
3030
3030
0FC0
0FC0
0FC0
0000
0000
0F0C
0F0C
FFF0
FFF0
00F0
00F0
3CF0
3CF0
F3F0
F3F0
FCFC
FCFC
3F30
3F30
ENDCHAR
STARTCHAR 0104
ENCODING 260
SWIDTH 630 0
DWIDTH 21 0
BBX 19 27 0 -6
BITMAP
0FFFE0
0FFFE0
3CFF80
3CFF80
FCFF80
C0FF80
C0FF80
C3CF80
C3CF80
03CF80
03CF80
0FFF80
0FFF80
0F0F80
0F0F80
3C0F80
3C0F80
3C0FE0
3C0FE0
F03F80
F03F80
000F80
000F80
003C00
003C00
000FE0
000FE0
ENDCHAR
STARTCHAR 0105
ENCODING 261
SWIDTH 510 0
DWIDTH 17 0
BBX 14 20 0 -6
BITMAP
0F0C
0F0C
FFF0
FFF0
00F0
00F0
3CF0
3CF0
F3F0
F3F0
FCFC
FCFC
3F30
3F30
00F0
00F0
00C0
00C0
003C
003C
ENDCHAR
STARTCHAR 0106
ENCODING 262
SWIDTH 630 0
DWIDTH 21 0
BBX 19 25 0 0
BITMAP
003C00
003C00
00F000
00F000
000000
000000
03F0E0
03F0E0
33FFE0
33FF80
33FF80
F3C000
F3C000
F3C000
F3C000
F30000
F30000
F30000
F30000
3C00E0
3C00E0
3FFF80
3FFF80
0FFC00
0FFC00
ENDCHAR
STARTCHAR 0107
ENCODING 263
SWIDTH 420 0
DWIDTH 14 0
BBX 12 21 0 0
BITMAP
03C0
03C0
0F00
0F00
0F00
0000
0000
0FC0
0FC0
30F0
30F0
F030
F030
F000
F000
F000
F000
FC30
FC30
3FC0
3FC0
ENDCHAR
STARTCHAR 0108
ENCODING 264
SWIDTH 630 0
DWIDTH 21 0
BBX 19 25 0 0
BITMAP
00F000
00F000
030C00
030C00
000000
000000
03F0E0
03F0E0
33FFE0
33FF80
33FF80
F3C000
F3C000
F3C000
F3C000
F30000
F30000
F30000
F30000
3C00E0
3C00E0
3FFF80
3FFF80
0FFC00
0FFC00
ENDCHAR
STARTCHAR 0109
ENCODING 265
SWIDTH 420 0
DWIDTH 14 0
BBX 12 21 0 0
BITMAP
0F00
0F00
30C0
30C0
30C0
0000
0000
0FC0
0FC0
30F0
30F0
F030
F030
F000
F000
F000
F000
FC30
FC30
3FC0
3FC0
ENDCHAR
STARTCHAR 010A
ENCODING 266
SWIDTH 630 0
DWIDTH 21 0
BBX 19 25 0 0
BITMAP
00F000
00F000
00F000
00F000
000000
000000
03F0E0
03F0E0
33FFE0
33FF80
33FF80
F3C000
F3C000
F3C000
F3C000
F30000
F30000
F30000
F30000
3C00E0
3C00E0
3FFF80
3FFF80
0FFC00
0FFC00
ENDCHAR
STARTCHAR 010B
ENCODING 267
SWIDTH 420 0
DWIDTH 14 0
BBX 12 21 0 0
BITMAP
03C0
03C0
03C0
03C0
03C0
0000
0000
0FC0
0FC0
30F0
30F0
F030
F030
F000
F000
F000
F000
FC30
FC30
3FC0
3FC0
ENDCHAR
STARTCHAR 010C
ENCODING 268
SWIDTH 630 0
DWIDTH 21 0
BBX 19 25 0 0
BITMAP
033000
033000
00C000
00C000
000000
000000
03F0E0
03F0E0
33FFE0
33FF80
33FF80
F3C000
F3C000
F3C000
F3C000
F30000
F30000
F30000
F30000
3C00E0
3C00E0
3FFF80
3FFF80
0FFC00
0FFC00
ENDCHAR
STARTCHAR 010D
ENCODING 269
SWIDTH 420 0
DWIDTH 14 0
BBX 12 21 0 0
BITMAP
0CC0
0CC0
0300
0300
0300
0000
0000
0FC0
0FC0
30F0
30F0
F030
F030
F000
F000
F000
F000
FC30
FC30
3FC0
3FC0
ENDCHAR
STARTCHAR 010E
ENCODING 270
SWIDTH 630 0
DWIDTH 21 0
BBX 21 25 -2 0
BITMAP
00CC00
00CC00
003000
003000
000000
000000
0FFF00
0FFF00
3FFFE0
3FFFE0
3FFFE0
C033F8
C033F8
0330F8
0330F8
0F30F8
0F30F8
0F30F8
0F30F8
0F30F8
0F30F8
0C33E0
0C33E0
33FF00
33FF00
ENDCHAR
STARTCHAR 010F
ENCODING 271
SWIDTH 570 0
DWIDTH 19 0
BBX 17 21 0 0
BITMAP
300F80
300F80
3C0F80
3C0F80
3F0F80
0F0380
0F0380
0FCC00
0FCC00
33F000
33F000
F0F000
F0F000
F0F000
F0F000
F0F000
F0F000
FCC000
FCC000
3F0000
3F0000
ENDCHAR
STARTCHAR 0110
ENCODING 272
SWIDTH 630 0
DWIDTH 21 0
BBX 21 21 -2 0
BITMAP
0FFF00
0FFF00
3FFFE0
3FFFE0
FFFFF8
C033F8
C033F8
0330F8
0330F8
0F30F8
0F30F8
3FFCF8
3FFCF8
0F30F8
0F30F8
0F30F8
0F30F8
0C33E0
0C33E0
33FF00
33FF00
ENDCHAR
STARTCHAR 0111
ENCODING 273
SWIDTH 420 0
DWIDTH 14 0
BBX 12 21 0 0
BITMAP
3000
3000
FFC0
FFC0
FFC0
0F00
0F00
0FC0
0FC0
33F0
33F0
F0F0
F0F0
F0F0
F0F0
F0F0
F0F0
FCC0
FCC0
3F00
3F00
ENDCHAR
STARTCHAR 0112
ENCODING 274
SWIDTH 570 0
DWIDTH 19 0
BBX 17 23 0 0
BITMAP
3FFC00
3FFC00
000000
000000
0CFF80
0CFF80
3FFF80
33FC00
33FC00
F30000
F30000
F3FC00
F3FC00
F3F000
F3F000
F30000
F30000
FC0380
FC0380
3FFF80
3FFF80
0FFC00
0FFC00
ENDCHAR
STARTCHAR 0113
ENCODING 275
SWIDTH 420 0
DWIDTH 14 0
BBX 12 19 0 0
BITMAP
3FF0
3FF0
3FF0
0000
0000
0FC0
0FC0
33F0
33F0
F0C0
F0C0
F300
F300
FC00
FC00
FC30
FC30
3FC0
3FC0
ENDCHAR
STARTCHAR 0114
ENCODING 276
SWIDTH 570 0
DWIDTH 19 0
BBX 17 25 0 0
BITMAP
0C0C00
0C0C00
03F000
03F000
000000
000000
0CFF80
0CFF80
3FFF80
33FC00
33FC00
F30000
F30000
F3FC00
F3FC00
F3F000
F3F000
F30000
F30000
FC0380
FC0380
3FFF80
3FFF80
0FFC00
0FFC00
ENDCHAR
STARTCHAR 0115
ENCODING 277
SWIDTH 420 0
DWIDTH 14 0
BBX 12 21 0 0
BITMAP
3030
3030
0FC0
0FC0
0FC0
0000
0000
0FC0
0FC0
33F0
33F0
F0C0
F0C0
F300
F300
FC00
FC00
FC30
FC30
3FC0
3FC0
ENDCHAR
STARTCHAR 0116
ENCODING 278
SWIDTH 570 0
DWIDTH 19 0
BBX 17 25 0 0
BITMAP
00F000
00F000
00F000
00F000
000000
000000
0CFF80
0CFF80
3FFF80
33FC00
33FC00
F30000
F30000
F3FC00
F3FC00
F3F000
F3F000
F30000
F30000
FC0380
FC0380
3FFF80
3FFF80
0FFC00
0FFC00
ENDCHAR
STARTCHAR 0117
ENCODING 279
SWIDTH 420 0
DWIDTH 14 0
BBX 12 21 0 0
BITMAP
03C0
03C0
03C0
03C0
03C0
0000
0000
0FC0
0FC0
33F0
33F0
F0C0
F0C0
F300
F300
FC00
FC00
FC30
FC30
3FC0
3FC0
ENDCHAR
STARTCHAR 0118
ENCODING 280
SWIDTH 570 0
DWIDTH 19 0
BBX 17 27 0 -6
BITMAP
0CFF80
0CFF80
33FC00
33FC00
F3FC00
F30000
F30000
F30000
F30000
F3FC00
F3FC00
F3F000
F3F000
F30000
F30000
FC0380
FC0380
3FFF80
3FFF80
0FFF80
0FFF80
000C00
000C00
003C00
003C00
000F80
000F80
ENDCHAR
STARTCHAR 0119
ENCODING 281
SWIDTH 420 0
DWIDTH 14 0
BBX 12 20 0 -6
BITMAP
0FC0
0FC0
33F0
33F0
F0C0
F0C0
F300
F300
FC00
FC00
FC30
FC30
3FC0
3FC0
0300
0300
0F00
0F00
03C0
03C0
ENDCHAR
STARTCHAR 011A
ENCODING 282
SWIDTH 570 0
DWIDTH 19 0
BBX 17 25 0 0
BITMAP
033000
033000
00C000
00C000
000000
000000
0CFF80
0CFF80
3FFF80
33FC00
33FC00
F30000
F30000
F3FC00
F3FC00
F3F000
F3F000
F30000
F30000
FC0380
FC0380
3FFF80
3FFF80
0FFC00
0FFC00
ENDCHAR
STARTCHAR 011B
ENCODING 283
SWIDTH 420 0
DWIDTH 14 0
BBX 12 21 0 0
BITMAP
0CC0
0CC0
0300
0300
0300
0000
0000
0FC0
0FC0
33F0
33F0
F0C0
F0C0
F300
F300
FC00
FC00
FC30
FC30
3FC0
3FC0
ENDCHAR
STARTCHAR 011C
ENCODING 284
SWIDTH 630 0
DWIDTH 21 0
BBX 19 25 0 0
BITMAP
00F000
00F000
030C00
030C00
000000
000000
03F0E0
03F0E0
33FFE0
33FF80
33FF80
F30000
F30000
F30F80
F30F80
F333E0
F333E0
F003E0
F003E0
FC03E0
FC03E0
3F0380
3F0380
0FFC00
0FFC00
ENDCHAR
STARTCHAR 011D
ENCODING 285
SWIDTH 510 0
DWIDTH 17 0
BBX 14 27 0 -6
BITMAP
0300
0300
0CC0
0CC0
0CC0
0000
0000
0FC0
0FC0
33FC
33FC
F0F0
F0F0
F0F0
F0F0
F0F0
F0F0
FCF0
FCF0
3FF0
3FF0
00F0
00F0
F0C0
F0C0
FF00
FF00
ENDCHAR
STARTCHAR 011E
ENCODING 286
SWIDTH 630 0
DWIDTH 21 0
BBX 19 25 0 0
BITMAP
0C0C00
0C0C00
03F000
03F000
000000
000000
03F0E0
03F0E0
33FFE0
33FF80
33FF80
F30000
F30000
F30F80
F30F80
F333E0
F333E0
F003E0
F003E0
FC03E0
FC03E0
3F0380
3F0380
0FFC00
0FFC00
ENDCHAR
STARTCHAR 011F
ENCODING 287
SWIDTH 510 0
DWIDTH 17 0
BBX 14 27 0 -6
BITMAP
3030
3030
0FC0
0FC0
0FC0
0000
0000
0FC0
0FC0
33FC
33FC
F0F0
F0F0
F0F0
F0F0
F0F0
F0F0
FCF0
FCF0
3FF0
3FF0
00F0
00F0
F0C0
F0C0
FF00
FF00
ENDCHAR
STARTCHAR 0120
ENCODING 288
SWIDTH 630 0
DWIDTH 21 0
BBX 19 25 0 0
BITMAP
00F000
00F000
00F000
00F000
000000
000000
03F0E0
03F0E0
33FFE0
33FF80
33FF80
F30000
F30000
F30F80
F30F80
F333E0
F333E0
F003E0
F003E0
FC03E0
FC03E0
3F0380
3F0380
0FFC00
0FFC00
ENDCHAR
STARTCHAR 0121
ENCODING 289
SWIDTH 510 0
DWIDTH 17 0
BBX 14 27 0 -6
BITMAP
03C0
03C0
03C0
03C0
03C0
0000
0000
0FC0
0FC0
33FC
33FC
F0F0
F0F0
F0F0
F0F0
F0F0
F0F0
FCF0
FCF0
3FF0
3FF0
00F0
00F0
F0C0
F0C0
FF00
FF00
ENDCHAR
STARTCHAR 0122
ENCODING 290
SWIDTH 630 0
DWIDTH 21 0
BBX 19 25 0 -6
BITMAP
03F0E0
03F0E0
33FFE0
33FF80
33FF80
F30000
F30000
F30F80
F30F80
F333E0
F333E0
F003E0
F003E0
FC03E0
FC03E0
3F0380
3F0380
0FFC00
0FFC00
00F000
00F000
000C00
000C00
00F000
00F000
ENDCHAR
STARTCHAR 0123
ENCODING 291
SWIDTH 510 0
DWIDTH 17 0
BBX 14 29 0 -6
BITMAP
0300
0300
0C00
0C00
0F00
0F00
0F00
0000
0000
0FC0
0FC0
33FC
33FC
F0F0
F0F0
F0F0
F0F0
F0F0
F0F0
FCF0
FCF0
3FF0
3FF0
00F0
00F0
F0C0
F0C0
FF00
FF00
ENDCHAR
STARTCHAR 0124
ENCODING 292
SWIDTH 510 0
DWIDTH 17 0
BBX 18 27 -4 -2
BITMAP
000F00
000F00
0030C0
0030C0
0F0000
0F0000
3F0000
3F0000
FF3F00
CF3F00
CF3F00
0FCFC0
0FCFC0
0F03C0
0F03C0
0F03C0
0F03C0
0F03C0
0F03C0
0F03C0
0F03C0
0FC3C0
0FC3C0
3F0300
3F0300
000C00
000C00
ENDCHAR
STARTCHAR 0125
ENCODING 293
SWIDTH 510 0
DWIDTH 17 0
BBX 16 29 -2 -4
BITMAP
003C
003C
00C3
00C3
0C00
0C00
3C00
3C00
FC00
FC00
FC00
3CFC
3CFC
3F3F
3F3F
3C0F
3C0F
3C0F
3C0F
3C0F
3C0F
3C0F
3C0F
3C0F
3C0F
000C
000C
0030
0030
ENDCHAR
STARTCHAR 0126
ENCODING 294
SWIDTH 570 0
DWIDTH 19 0
BBX 21 23 -4 -2
BITMAP
0FC000
0FC000
3F0000
3F0000
FFFFF8
FFFFF8
FFFFF8
0F0000
0F0000
0FFF00
0FFF00
0F0FC0
0F0FC0
0F03C0
0F03C0
0F03C0
0F03C0
0FC3C0
0FC3C0
3F0300
3F0300
000C00
000C00
ENDCHAR
STARTCHAR 0127
ENCODING 295
SWIDTH 510 0
DWIDTH 17 0
BBX 18 25 -4 -4
BITMAP
030000
030000
FFF000
FFF000
FFF000
3F0000
3F0000
0F3F00
0F3F00
0FCFC0
0FCFC0
0F03C0
0F03C0
0F03C0
0F03C0
0F03C0
0F03C0
0F03C0
0F03C0
0F03C0
0F03C0
000300
000300
000C00
000C00
ENDCHAR
STARTCHAR 0128
ENCODING 296
SWIDTH 570 0
DWIDTH 19 0
BBX 19 25 -2 0
BITMAP
03C300
03C300
0C3C00
0C3C00
000000
000000
3FC0E0
3FC0E0
FFFFE0
C3FF00
C3FF00
033C00
033C00
033C00
033C00
033C00
033C00
033C00
033C00
003C00
003C00
0FFF00
0FFF00
30FC00
30FC00
ENDCHAR
STARTCHAR 0129
ENCODING 297
SWIDTH 360 0
DWIDTH 12 0
BBX 12 21 -2 0
BITMAP
3C30
3C30
C3C0
C3C0
C3C0
0000
0000
3C00
3C00
FC00
FC00
3C00
3C00
3C00
3C00
3C00
3C00
3F00
3F00
3C00
3C00
ENDCHAR
STARTCHAR 012A
ENCODING 298
SWIDTH 570 0
DWIDTH 19 0
BBX 19 23 -2 0
BITMAP
0FFF00
0FFF00
000000
000000
3FC0E0
3FC0E0
FFFFE0
C3FF00
C3FF00
033C00
033C00
033C00
033C00
033C00
033C00
033C00
033C00
003C00
003C00
0FFF00
0FFF00
30FC00
30FC00
ENDCHAR
STARTCHAR 012B
ENCODING 299
SWIDTH 240 0
DWIDTH 8 0
BBX 8 19 -2 0
BITMAP
FF
FF
FF
00
00
3C
3C
FC
FC
3C
3C
3C
3C
3C
3C
3F
3F
3C
3C
ENDCHAR
STARTCHAR 012C
ENCODING 300
SWIDTH 570 0
DWIDTH 19 0
BBX 19 25 -2 0
BITMAP
030300
030300
00FC00
00FC00
000000
000000
3FC0E0
3FC0E0
FFFFE0
C3FF00
C3FF00
033C00
033C00
033C00
033C00
033C00
033C00
033C00
033C00
003C00
003C00
0FFF00
0FFF00
30FC00
30FC00
ENDCHAR
STARTCHAR 012D
ENCODING 301
SWIDTH 300 0
DWIDTH 10 0
BBX 10 21 -2 0
BITMAP
C0C0
C0C0
3F00
3F00
3F00
0000
0000
3C00
3C00
FC00
FC00
3C00
3C00
3C00
3C00
3C00
3C00
3F00
3F00
3C00
3C00
ENDCHAR
STARTCHAR 012E
ENCODING 302
SWIDTH 570 0
DWIDTH 19 0
BBX 19 27 -2 -6
BITMAP
3FC0E0
3FC0E0
C3FF00
C3FF00
C3FF00
033C00
033C00
033C00
033C00
033C00
033C00
033C00
033C00
033C00
033C00
003C00
003C00
0FFF00
0FFF00
30FC00
30FC00
003000
003000
00C000
00C000
003C00
003C00
ENDCHAR
STARTCHAR 012F
ENCODING 303
SWIDTH 240 0
DWIDTH 8 0
BBX 8 27 -2 -6
BITMAP
0C
0C
3C
3C
3C
00
00
3C
3C
FC
FC
3C
3C
3C
3C
3C
3C
3F
3F
3C
3C
30
30
C0
C0
3C
3C
ENDCHAR
STARTCHAR 0130
ENCODING 304
SWIDTH 570 0
DWIDTH 19 0
BBX 19 25 -2 0
BITMAP
00F000
00F000
00F000
00F000
000000
000000
3FC0E0
3FC0E0
FFFFE0
C3FF00
C3FF00
033C00
033C00
033C00
033C00
033C00
033C00
033C00
033C00
003C00
003C00
0FFF00
0FFF00
30FC00
30FC00
ENDCHAR
STARTCHAR 0131
ENCODING 305
SWIDTH 240 0
DWIDTH 8 0
BBX 8 14 -2 0
BITMAP
3C
3C
FC
FC
3C
3C
3C
3C
3C
3C
3F
3F
3C
3C
ENDCHAR
STARTCHAR 0132
ENCODING 306
SWIDTH 810 0
DWIDTH 27 0
BBX 29 21 -4 0
BITMAP
3FF3F818
3FF3F818
FFCC3FE0
FFCC3FE0
FFCC3FE0
0F000F80
0F000F80
0F00CF80
0F00CF80
0F00CF80
0F00CF80
0F00CF80
0F00CF80
0F00CF80
0F00CF80
0F3F0F80
0F3F0F80
3F3FCE00
3F3FCE00
C3C3F800
C3C3F800
ENDCHAR
STARTCHAR 0133
ENCODING 307
SWIDTH 510 0
DWIDTH 17 0
BBX 16 27 -2 -6
BITMAP
0C0C
0C0C
3C3C
3C3C
3C3C
0000
0000
0C3C
0C3C
3CFC
3CFC
FC3F
FC3F
3C0F
3C0F
3F0F
3F0F
3C0F
3C0F
300F
300F
003C
003C
0030
0030
00C0
00C0
ENDCHAR
STARTCHAR 0134
ENCODING 308
SWIDTH 690 0
DWIDTH 23 0
BBX 23 29 -2 -4
BITMAP
003C00
003C00
00C300
00C300
000000
000000
03FC06
03FC06
0FFFFE
0FFFF8
0FFFF8
3003E0
3003E0
0033E0
0033E0
0033E0
0033E0
0033E0
0033E0
0FC3E0
0FC3E0
33F300
33F300
C0FC00
C0FC00
FC0000
FC0000
300000
300000
ENDCHAR
STARTCHAR 0135
ENCODING 309
SWIDTH 300 0
DWIDTH 10 0
BBX 8 27 0 -6
BITMAP
3C
3C
C3
C3
C3
00
00
3C
3C
FC
FC
3F
3F
0F
0F
0F
0F
0F
0F
0F
0F
3C
3C
30
30
C0
C0
ENDCHAR
STARTCHAR 0136
ENCODING 310
SWIDTH 630 0
DWIDTH 21 0
BBX 21 27 -2 -6
BITMAP
0FC000
0FC000
FF0000
FF0000
FF3F00
0F3F00
0F3F00
0FCFE0
0FCFE0
0F0F00
0F0F00
0FFC00
0FFC00
0F0F00
0F0F00
0F0FE0
0F0FE0
0FC3F8
0FC3F8
0F03E0
0F03E0
003F00
003F00
000C00
000C00
00F000
00F000
ENDCHAR
STARTCHAR 0137
ENCODING 311
SWIDTH 570 0
DWIDTH 19 0
BBX 19 27 -2 -6
BITMAP
3F0000
3F0000
FC0000
FC0000
FC0000
3C0000
3C0000
3CFC00
3CFC00
3F3F00
3F3F00
3C3F00
3C3F00
3FFC00
3FFC00
3C3F00
3C3F00
3C0F00
3C0F00
FF0FE0
FF0FE0
00F000
00F000
003000
003000
03C000
03C000
ENDCHAR
STARTCHAR 0138
ENCODING 312
SWIDTH 570 0
DWIDTH 19 0
BBX 19 14 -2 0
BITMAP
3F0300
3F0300
FC0F00
FC0F00
3C3F00
3C3F00
3FFC00
3FFC00
3C3F00
3C3F00
3C0F00
3C0F00
FF0FE0
FF0FE0
ENDCHAR
STARTCHAR 0139
ENCODING 313
SWIDTH 570 0
DWIDTH 19 0
BBX 21 25 -4 0
BITMAP
003C00
003C00
00F000
00F000
000000
000000
3F0300
3F0300
3FFF00
0FFC00
0FFC00
0FC000
0FC000
03C000
03C000
03C000
03C000
030000
030000
0FC038
0FC038
3FFFC0
3FFFC0
C03F00
C03F00
ENDCHAR
STARTCHAR 013A
ENCODING 314
SWIDTH 240 0
DWIDTH 8 0
BBX 8 25 -2 0
BITMAP
0F
0F
3C
3C
00
00
3C
3C
FC
FC
FC
3C
3C
3C
3C
3C
3C
3C
3C
3C
3C
3F
3F
3C
3C
ENDCHAR
STARTCHAR 013B
ENCODING 315
SWIDTH 570 0
DWIDTH 19 0
BBX 21 21 -4 0
BITMAP
3F0300
3F0300
0FFC00
0FFC00
0FFC00
0FC000
0FC000
03C000
03C000
03C000
03C000
03C000
03C000
030000
030000
0FC038
0FC038
3FFFC0
3FFFC0
C03F00
C03F00
ENDCHAR
STARTCHAR 013C
ENCODING 316
SWIDTH 240 0
DWIDTH 8 0
BBX 8 27 -2 -6
BITMAP
3C
3C
FC
FC
FC
3C
3C
3C
3C
3C
3C
3C
3C
3C
3C
3C
3C
3F
3F
3C
3C
3C
3C
03
03
3C
3C
ENDCHAR
STARTCHAR 013D
ENCODING 317
SWIDTH 570 0
DWIDTH 19 0
BBX 21 21 -4 0
BITMAP
3F0F00
3F0F00
0FCF00
0FCF00
0FCF00
0FC300
0FC300
03CC00
03CC00
03C000
03C000
03C000
03C000
030000
030000
0FC038
0FC038
3FFFC0
3FFFC0
C03F00
C03F00
ENDCHAR
STARTCHAR 013E
ENCODING 318
SWIDTH 360 0
DWIDTH 12 0
BBX 12 21 -2 0
BITMAP
3CF0
3CF0
FCF0
FCF0
FCF0
3C30
3C30
3CC0
3CC0
3C00
3C00
3C00
3C00
3C00
3C00
3C00
3C00
3F00
3F00
3C00
3C00
ENDCHAR
STARTCHAR 013F
ENCODING 319
SWIDTH 570 0
DWIDTH 19 0
BBX 21 21 -4 0
BITMAP
3F0300
3F0300
0FFC00
0FFC00
0FFC00
0FC000
0FC000
03C000
03C000
03CF00
03CF00
03CF00
03CF00
030000
030000
0FC038
0FC038
3FFFC0
3FFFC0
C03F00
C03F00
ENDCHAR
STARTCHAR 0140
ENCODING 320
SWIDTH 360 0
DWIDTH 12 0
BBX 12 21 -2 0
BITMAP
3C00
3C00
FC00
FC00
FC00
3C00
3C00
3C00
3C00
3CF0
3CF0
3CF0
3CF0
3C00
3C00
3C00
3C00
3F00
3F00
3C00
3C00
ENDCHAR
STARTCHAR 0141
ENCODING 321
SWIDTH 570 0
DWIDTH 19 0
BBX 21 21 -4 0
BITMAP
3F0300
3F0300
0FFC00
0FFC00
0FFC00
0FC000
0FC000
03FC00
03FC00
03C000
03C000
0FC000
0FC000
330000
330000
0FC038
0FC038
3FFFC0
3FFFC0
C03F00
C03F00
ENDCHAR
STARTCHAR 0142
ENCODING 322
SWIDTH 300 0
DWIDTH 10 0
BBX 12 21 -4 0
BITMAP
0F00
0F00
3F00
3F00
3F00
0F00
0F00
0F30
0F30
0FC0
0FC0
0F00
0F00
3F00
3F00
CF00
CF00
0FC0
0FC0
0F00
0F00
ENDCHAR
STARTCHAR 0143
ENCODING 323
SWIDTH 750 0
DWIDTH 25 0
BBX 25 25 -2 0
BITMAP
003C0000
003C0000
00F00000
00F00000
00000000
00000000
030FE000
030FE000
0F3FF800
0F3FF800
0F3FF800
33C3F800
33C3F800
F3C0F800
F3C0F800
F3C0F800
F3C0F800
33C0F800
33C0F800
03C0E180
03C0E180
3FC3FE00
3FC3FE00
C30FF800
C30FF800
ENDCHAR
STARTCHAR 0144
ENCODING 324
SWIDTH 510 0
DWIDTH 17 0
BBX 16 21 -2 0
BITMAP
00F0
00F0
03C0
03C0
03C0
0000
0000
0CF0
0CF0
3F3C
3F3C
FC3C
FC3C
3C3C
3C3C
3C3C
3C3C
3F3F
3F3F
3C3C
3C3C
ENDCHAR
STARTCHAR 0145
ENCODING 325
SWIDTH 750 0
DWIDTH 25 0
BBX 25 21 -2 0
BITMAP
030FE000
030FE000
0F3FF800
0F3FF800
3FFFF800
33C3F800
33C3F800
F3C0F800
F3C0F800
F3C0F800
F3C0F800
33C0F800
33C0F800
03C0F800
03C0F800
03C0E180
03C0E180
3FC3FE00
3FC3FE00
C30FF800
C30FF800
ENDCHAR
STARTCHAR 0146
ENCODING 326
SWIDTH 510 0
DWIDTH 17 0
BBX 16 20 -2 -6
BITMAP
0CF0
0CF0
3F3C
3F3C
FC3C
FC3C
3C3C
3C3C
3C3C
3C3C
3F3F
3F3F
3C3C
3C3C
00C0
00C0
0030
0030
03C0
03C0
ENDCHAR
STARTCHAR 0147
ENCODING 327
SWIDTH 750 0
DWIDTH 25 0
BBX 25 25 -2 0
BITMAP
00C30000
00C30000
003C0000
003C0000
00000000
00000000
030FE000
030FE000
0F3FF800
0F3FF800
0F3FF800
33C3F800
33C3F800
F3C0F800
F3C0F800
F3C0F800
F3C0F800
33C0F800
33C0F800
03C0E180
03C0E180
3FC3FE00
3FC3FE00
C30FF800
C30FF800
ENDCHAR
STARTCHAR 0148
ENCODING 328
SWIDTH 510 0
DWIDTH 17 0
BBX 16 21 -2 0
BITMAP
0330
0330
00C0
00C0
00C0
0000
0000
0CF0
0CF0
3F3C
3F3C
FC3C
FC3C
3C3C
3C3C
3C3C
3C3C
3F3F
3F3F
3C3C
3C3C
ENDCHAR
STARTCHAR 0149
ENCODING 329
SWIDTH 510 0
DWIDTH 17 0
BBX 16 23 -2 0
BITMAP
3C00
3C00
3C00
3C00
0C00
0C00
3C00
3000
3000
0CF0
0CF0
3F3C
3F3C
FC3C
FC3C
3C3C
3C3C
3C3C
3C3C
3F3F
3F3F
3C3C
3C3C
ENDCHAR
STARTCHAR 014A
ENCODING 330
SWIDTH 630 0
DWIDTH 21 0
BBX 21 23 -2 -2
BITMAP
030FE0
030FE0
0F3FF8
0F3FF8
3FFFF8
33C3F8
33C3F8
F3C0F8
F3C0F8
F3C0F8
F3C0F8
33C0F8
33C0F8
03C0F8
03C0F8
03C0F8
03C0F8
3FC0F8
3FC0F8
C303E0
C303E0
000F00
000F00
ENDCHAR
STARTCHAR 014B
ENCODING 331
SWIDTH 420 0
DWIDTH 14 0
BBX 14 20 -2 -6
BITMAP
0CF0
0CF0
3F3C
3F3C
FC3C
FC3C
3C3C
3C3C
3C3C
3C3C
3F3C
3F3C
3C3C
3C3C
003C
003C
033C
033C
00F0
00F0
ENDCHAR
STARTCHAR 014C
ENCODING 332
SWIDTH 630 0
DWIDTH 21 0
BBX 19 23 0 0
BITMAP
0FFF80
0FFF80
000000
000000
0CFF80
0CFF80
3FFFE0
33CFE0
33CFE0
F3C3E0
F3C3E0
F3F3E0
F3F3E0
F3C3E0
F3C3E0
F3C3E0
F3C3E0
FCC3E0
FCC3E0
3F0380
3F0380
0FFC00
0FFC00
ENDCHAR
STARTCHAR 014D
ENCODING 333
SWIDTH 420 0
DWIDTH 14 0
BBX 12 19 0 0
BITMAP
3FF0
3FF0
3FF0
0000
0000
0FC0
0FC0
33F0
33F0
F0F0
F0F0
F0F0
F0F0
F0F0
F0F0
FCC0
FCC0
3F00
3F00
ENDCHAR
STARTCHAR 014E
ENCODING 334
SWIDTH 630 0
DWIDTH 21 0
BBX 19 25 0 0
BITMAP
030380
030380
00FC00
00FC00
000000
000000
0CFF80
0CFF80
3FFFE0
33CFE0
33CFE0
F3C3E0
F3C3E0
F3F3E0
F3F3E0
F3C3E0
F3C3E0
F3C3E0
F3C3E0
FCC3E0
FCC3E0
3F0380
3F0380
0FFC00
0FFC00
ENDCHAR
STARTCHAR 014F
ENCODING 335
SWIDTH 420 0
DWIDTH 14 0
BBX 12 21 0 0
BITMAP
3030
3030
0FC0
0FC0
0FC0
0000
0000
0FC0
0FC0
33F0
33F0
F0F0
F0F0
F0F0
F0F0
F0F0
F0F0
FCC0
FCC0
3F00
3F00
ENDCHAR
STARTCHAR 0150
ENCODING 336
SWIDTH 630 0
DWIDTH 21 0
BBX 19 25 0 0
BITMAP
03CF80
03CF80
0F3C00
0F3C00
000000
000000
0CFF80
0CFF80
3FFFE0
33CFE0
33CFE0
F3C3E0
F3C3E0
F3F3E0
F3F3E0
F3C3E0
F3C3E0
F3C3E0
F3C3E0
FCC3E0
FCC3E0
3F0380
3F0380
0FFC00
0FFC00
ENDCHAR
STARTCHAR 0151
ENCODING 337
SWIDTH 510 0
DWIDTH 17 0
BBX 14 21 0 0
BITMAP
0F3C
0F3C
3CF0
3CF0
3CF0
0000
0000
0FC0
0FC0
33F0
33F0
F0F0
F0F0
F0F0
F0F0
F0F0
F0F0
FCC0
FCC0
3F00
3F00
ENDCHAR
STARTCHAR 0152
ENCODING 338
SWIDTH 870 0
DWIDTH 29 0
BBX 27 21 0 0
BITMAP
03F0FFE0
03F0FFE0
33FFFF80
33FFFF80
F3FFFF80
F3C3E000
F3C3E000
F3C3E000
F3C3E000
F3C3FF80
F3C3FF80
F303FE00
F303FE00
F303E000
F303E000
3C03E060
3C03E060
3FFFFFE0
3FFFFFE0
0FFFFF80
0FFFFF80
ENDCHAR
STARTCHAR 0153
ENCODING 339
SWIDTH 810 0
DWIDTH 27 0
BBX 25 14 0 0
BITMAP
0FC0FE00
0FC0FE00
30339F80
30339F80
F00F8600
F00F8600
F00F9800
F00F9800
F00FE000
F00FE000
FC3FE180
FC3FE180
3FC3FE00
3FC3FE00
ENDCHAR
STARTCHAR 0154
ENCODING 340
SWIDTH 750 0
DWIDTH 25 0
BBX 23 25 0 0
BITMAP
00F000
00F000
03C000
03C000
000F80
000F80
0F3FE0
0F3FE0
3FFFE0
3FC3E0
3FC3E0
CF0380
CF0380
0FFC00
0FFC00
0F3F80
0F3F80
0F0F80
0F0F80
0F0FE6
0F0FE6
0F33F8
0F33F8
3FC3E0
3FC3E0
ENDCHAR
STARTCHAR 0155
ENCODING 341
SWIDTH 420 0
DWIDTH 14 0
BBX 14 21 -2 0
BITMAP
03C0
03C0
0F00
0F00
0F00
0000
0000
0CFC
0CFC
3F3C
3F3C
FC30
FC30
3C00
3C00
3C00
3C00
3F00
3F00
3C00
3C00
ENDCHAR
STARTCHAR 0156
ENCODING 342
SWIDTH 750 0
DWIDTH 25 0
BBX 23 27 0 -6
BITMAP
000F80
000F80
0F3FE0
0F3FE0
3FFFE0
3FC3E0
3FC3E0
CF0380
CF0380
0FFC00
0FFC00
0F3F80
0F3F80
0F0F80
0F0F80
0F0FE6
0F0FE6
0F33F8
0F33F8
3FC3E0
3FC3E0
00F000
00F000
000C00
000C00
00F000
00F000
ENDCHAR
STARTCHAR 0157
ENCODING 343
SWIDTH 420 0
DWIDTH 14 0
BBX 14 20 -2 -6
BITMAP
0CFC
0CFC
3F3C
3F3C
FC30
FC30
3C00
3C00
3C00
3C00
3F00
3F00
3C00
3C00
0F00
0F00
00C0
00C0
0F00
0F00
ENDCHAR
STARTCHAR 0158
ENCODING 344
SWIDTH 750 0
DWIDTH 25 0
BBX 23 25 0 0
BITMAP
033000
033000
00C000
00C000
000F80
000F80
0F3FE0
0F3FE0
3FFFE0
3FC3E0
3FC3E0
CF0380
CF0380
0FFC00
0FFC00
0F3F80
0F3F80
0F0F80
0F0F80
0F0FE6
0F0FE6
0F33F8
0F33F8
3FC3E0
3FC3E0
ENDCHAR
STARTCHAR 0159
ENCODING 345
SWIDTH 420 0
DWIDTH 14 0
BBX 14 21 -2 0
BITMAP
0CC0
0CC0
0300
0300
0300
0000
0000
0CFC
0CFC
3F3C
3F3C
FC30
FC30
3C00
3C00
3C00
3C00
3F00
3F00
3C00
3C00
ENDCHAR
STARTCHAR 015A
ENCODING 346
SWIDTH 690 0
DWIDTH 23 0
BBX 21 25 0 0
BITMAP
003C00
003C00
00F000
00F000
000000
000000
0FF0E0
0FF0E0
3FFFE0
3C3F80
3C3F80
3F0C00
3F0C00
0FFF80
0FFF80
0CCFE0
0CCFE0
3C03F8
3C03F8
FF00F8
FF00F8
0FC3E0
0FC3E0
03FF80
03FF80
ENDCHAR
STARTCHAR 015B
ENCODING 347
SWIDTH 420 0
DWIDTH 14 0
BBX 12 21 0 0
BITMAP
03C0
03C0
0F00
0F00
0F00
0000
0000
0FC0
0FC0
30F0
30F0
FC30
FC30
3FC0
3FC0
C3F0
C3F0
F0C0
F0C0
3F00
3F00
ENDCHAR
STARTCHAR 015C
ENCODING 348
SWIDTH 690 0
DWIDTH 23 0
BBX 21 25 0 0
BITMAP
00F000
00F000
030C00
030C00
000000
000000
0FF0E0
0FF0E0
3FFFE0
3C3F80
3C3F80
3F0C00
3F0C00
0FFF80
0FFF80
0CCFE0
0CCFE0
3C03F8
3C03F8
FF00F8
FF00F8
0FC3E0
0FC3E0
03FF80
03FF80
ENDCHAR
STARTCHAR 015D
ENCODING 349
SWIDTH 420 0
DWIDTH 14 0
BBX 12 21 0 0
BITMAP
0F00
0F00
30C0
30C0
30C0
0000
0000
0FC0
0FC0
30F0
30F0
FC30
FC30
3FC0
3FC0
C3F0
C3F0
F0C0
F0C0
3F00
3F00
ENDCHAR
STARTCHAR 015E
ENCODING 350
SWIDTH 690 0
DWIDTH 23 0
BBX 21 27 0 -6
BITMAP
0FF0E0
0FF0E0
3C3F80
3C3F80
3F3F80
3F0C00
3F0C00
0FFF80
0FFF80
00CFE0
00CFE0
0C03F8
0C03F8
3C00F8
3C00F8
FF00F8
FF00F8
0FC3E0
0FC3E0
03FF80
03FF80
003000
003000
000C00
000C00
00F000
00F000
ENDCHAR
STARTCHAR 015F
ENCODING 351
SWIDTH 420 0
DWIDTH 14 0
BBX 12 20 0 -6
BITMAP
0FC0
0FC0
30F0
30F0
FC30
FC30
3FC0
3FC0
C3F0
C3F0
F0C0
F0C0
3F00
3F00
0C00
0C00
0300
0300
3C00
3C00
ENDCHAR
STARTCHAR 0160
ENCODING 352
SWIDTH 690 0
DWIDTH 23 0
BBX 21 25 0 0
BITMAP
00CC00
00CC00
003000
003000
000000
000000
0FF0E0
0FF0E0
3FFFE0
3C3F80
3C3F80
3F0C00
3F0C00
0FFF80
0FFF80
0CCFE0
0CCFE0
3C03F8
3C03F8
FF00F8
FF00F8
0FC3E0
0FC3E0
03FF80
03FF80
ENDCHAR
STARTCHAR 0161
ENCODING 353
SWIDTH 420 0
DWIDTH 14 0
BBX 12 21 0 0
BITMAP
0CC0
0CC0
0300
0300
0300
0000
0000
0FC0
0FC0
30F0
30F0
FC30
FC30
3FC0
3FC0
C3F0
C3F0
F0C0
F0C0
3F00
3F00
ENDCHAR
STARTCHAR 0162
ENCODING 354
SWIDTH 630 0
DWIDTH 21 0
BBX 21 27 -2 -6
BITMAP
0FC038
0FC038
3FFFE0
3FFFE0
FFFFE0
C3FF00
C3FF00
033000
033000
0F3000
0F3000
0F3000
0F3000
0F3000
0F3000
0F3000
0F3000
0FC0E0
0FC0E0
03FF00
03FF00
003000
003000
000C00
000C00
00F000
00F000
ENDCHAR
STARTCHAR 0163
ENCODING 355
SWIDTH 240 0
DWIDTH 8 0
BBX 8 27 -2 -6
BITMAP
0C
0C
3C
3C
3C
3C
3C
FF
FF
3C
3C
3C
3C
3C
3C
3F
3F
3C
3C
3C
3C
0C
0C
03
03
3C
3C
ENDCHAR
STARTCHAR 0164
ENCODING 356
SWIDTH 630 0
DWIDTH 21 0
BBX 21 25 -2 0
BITMAP
00CC00
00CC00
003000
003000
000000
000000
0FC038
0FC038
3FFFF8
3FFFE0
3FFFE0
C3FF00
C3FF00
0F3000
0F3000
0F3000
0F3000
0F3000
0F3000
0F3000
0F3000
0FC0E0
0FC0E0
03FF00
03FF00
ENDCHAR
STARTCHAR 0165
ENCODING 357
SWIDTH 360 0
DWIDTH 12 0
BBX 12 21 -2 0
BITMAP
0CF0
0CF0
3CF0
3CF0
3CF0
3C30
3C30
FFC0
FFC0
3C00
3C00
3C00
3C00
3C00
3C00
3F00
3F00
3C00
3C00
3000
3000
ENDCHAR
STARTCHAR 0166
ENCODING 358
SWIDTH 630 0
DWIDTH 21 0
BBX 21 21 -2 0
BITMAP
0FC038
0FC038
3FFFE0
3FFFE0
FFFFE0
C3FF00
C3FF00
033000
033000
0F3000
0F3000
3FFF00
3FFF00
0F3000
0F3000
0F3000
0F3000
0FC0E0
0FC0E0
03FF00
03FF00
ENDCHAR
STARTCHAR 0167
ENCODING 359
SWIDTH 240 0
DWIDTH 8 0
BBX 8 21 -2 0
BITMAP
0C
0C
3C
3C
3C
3C
3C
FF
FF
3C
3C
FF
FF
3C
3C
3F
3F
3C
3C
30
30
ENDCHAR
STARTCHAR 0168
ENCODING 360
SWIDTH 630 0
DWIDTH 21 0
BBX 21 25 -2 0
BITMAP
00F0E0
00F0E0
030F00
030F00
000000
000000
03C0F8
03C0F8
0FC3F8
0FC3E0
0FC3E0
3F03E0
3F03E0
CC03E0
CC03E0
3C03E0
3C03E0
3C03E0
3C03E0
3F03E0
3F03E0
0FCFF8
0FCFF8
03F3E0
03F3E0
ENDCHAR
STARTCHAR 0169
ENCODING 361
SWIDTH 570 0
DWIDTH 19 0
BBX 19 21 -2 0
BITMAP
03C300
03C300
0C3C00
0C3C00
0C3C00
000000
000000
0C03E0
0C03E0
3C0F00
3C0F00
FC0F00
FC0F00
3C0F00
3C0F00
3C3F00
3C3F00
3FCFE0
3FCFE0
0F0F00
0F0F00
ENDCHAR
STARTCHAR 016A
ENCODING 362
SWIDTH 630 0
DWIDTH 21 0
BBX 21 23 -2 0
BITMAP
0FFFE0
0FFFE0
000000
000000
03C0F8
03C0F8
0FC3F8
0FC3E0
0FC3E0
3F03E0
3F03E0
CC03E0
CC03E0
3C03E0
3C03E0
3C03E0
3C03E0
3F03E0
3F03E0
0FCFF8
0FCFF8
03F3E0
03F3E0
ENDCHAR
STARTCHAR 016B
ENCODING 363
SWIDTH 570 0
DWIDTH 19 0
BBX 19 19 -2 0
BITMAP
0FFF00
0FFF00
0FFF00
000000
000000
0C03E0
0C03E0
3C0F00
3C0F00
FC0F00
FC0F00
3C0F00
3C0F00
3C3F00
3C3F00
3FCFE0
3FCFE0
0F0F00
0F0F00
ENDCHAR
STARTCHAR 016C
ENCODING 364
SWIDTH 630 0
DWIDTH 21 0
BBX 21 25 -2 0
BITMAP
00C0E0
00C0E0
003F00
003F00
000000
000000
03C0F8
03C0F8
0FC3F8
0FC3E0
0FC3E0
3F03E0
3F03E0
CC03E0
CC03E0
3C03E0
3C03E0
3C03E0
3C03E0
3F03E0
3F03E0
0FCFF8
0FCFF8
03F3E0
03F3E0
ENDCHAR
STARTCHAR 016D
ENCODING 365
SWIDTH 570 0
DWIDTH 19 0
BBX 19 21 -2 0
BITMAP
0C0C00
0C0C00
03F000
03F000
03F000
000000
000000
0C03E0
0C03E0
3C0F00
3C0F00
FC0F00
FC0F00
3C0F00
3C0F00
3C3F00
3C3F00
3FCFE0
3FCFE0
0F0F00
0F0F00
ENDCHAR
STARTCHAR 016E
ENCODING 366
SWIDTH 630 0
DWIDTH 21 0
BBX 21 25 -2 0
BITMAP
003C00
003C00
00C300
00C300
00C300
00C300
03FCF8
03FCF8
0FFFF8
0FC3E0
0FC3E0
3F03E0
3F03E0
CC03E0
CC03E0
3C03E0
3C03E0
3C03E0
3C03E0
3F03E0
3F03E0
0FCFF8
0FCFF8
03F3E0
03F3E0
ENDCHAR
STARTCHAR 016F
ENCODING 367
SWIDTH 570 0
DWIDTH 19 0
BBX 19 23 -2 0
BITMAP
00C000
00C000
033000
033000
00C000
00C000
00C000
000000
000000
0C03E0
0C03E0
3C0F00
3C0F00
FC0F00
FC0F00
3C0F00
3C0F00
3C3F00
3C3F00
3FCFE0
3FCFE0
0F0F00
0F0F00
ENDCHAR
STARTCHAR 0170
ENCODING 368
SWIDTH 630 0
DWIDTH 21 0
BBX 21 25 -2 0
BITMAP
00F3E0
00F3E0
03CF00
03CF00
000000
000000
03C0F8
03C0F8
0FC3F8
0FC3E0
0FC3E0
3F03E0
3F03E0
CC03E0
CC03E0
3C03E0
3C03E0
3C03E0
3C03E0
3F03E0
3F03E0
0FCFF8
0FCFF8
03F3E0
03F3E0
ENDCHAR
STARTCHAR 0171
ENCODING 369
SWIDTH 570 0
DWIDTH 19 0
BBX 19 21 -2 0
BITMAP
03CF00
03CF00
0F3C00
0F3C00
0F3C00
000000
000000
0C03E0
0C03E0
3C0F00
3C0F00
FC0F00
FC0F00
3C0F00
3C0F00
3C3F00
3C3F00
3FCFE0
3FCFE0
0F0F00
0F0F00
ENDCHAR
STARTCHAR 0172
ENCODING 370
SWIDTH 630 0
DWIDTH 21 0
BBX 21 25 -2 -6
BITMAP
03C0F8
03C0F8
0FC3F8
0FC3E0
0FC3E0
3F03E0
3F03E0
CC03E0
CC03E0
3C03E0
3C03E0
3C03E0
3C03E0
3F03E0
3F03E0
0FCFF8
0FCFF8
03F3E0
03F3E0
003000
003000
00C000
00C000
003C00
003C00
ENDCHAR
STARTCHAR 0173
ENCODING 371
SWIDTH 570 0
DWIDTH 19 0
BBX 19 20 -2 -6
BITMAP
0C03E0
0C03E0
3C0F00
3C0F00
FC0F00
FC0F00
3C0F00
3C0F00
3C3F00
3C3F00
3FCFE0
3FCFE0
0F0F00
0F0F00
000C00
000C00
003000
003000
000F00
000F00
ENDCHAR
STARTCHAR 0174
ENCODING 372
SWIDTH 870 0
DWIDTH 29 0
BBX 31 25 -4 0
BITMAP
0003C000
0003C000
000C3800
000C3800
00000000
00000000
0300F81E
0300F81E
3F03F87E
3F03C078
3F03C078
CF03C078
CF03C078
CF03C078
CF03C078
CF03C060
CF03C060
0F0FC1E0
0F0FC1E0
0FCCF980
0FCCF980
03F0FE00
03F0FE00
00C03800
00C03800
ENDCHAR
STARTCHAR 0175
ENCODING 373
SWIDTH 690 0
DWIDTH 23 0
BBX 23 21 -2 0
BITMAP
003C00
003C00
00C300
00C300
00C300
000000
000000
0C0CF8
0C0CF8
3C3F3E
3C3F3E
FC3C3E
FC3C3E
3C3C38
3C3C38
3CFCE0
3CFCE0
3F3F00
3F3F00
0C0C00
0C0C00
ENDCHAR
STARTCHAR 0176
ENCODING 374
SWIDTH 690 0
DWIDTH 23 0
BBX 23 33 -2 -8
BITMAP
003C00
003C00
00C300
00C300
0F003E
0F003E
FF00F8
FF00F8
FF00F8
0F00F8
0F00F8
0F00F8
0F00F8
0F00F8
0F00F8
0F00F8
0F00F8
0F00F8
0F00F8
0FC3F8
0FC3F8
03FCF8
03FCF8
00F0F8
00F0F8
0000F8
0000F8
0FF0F8
0FF0F8
3FFFE0
3FFFE0
C03F00
C03F00
ENDCHAR
STARTCHAR 0177
ENCODING 375
SWIDTH 420 0
DWIDTH 14 0
BBX 14 20 -2 -6
BITMAP
0C30
0C30
3CFC
3CFC
FC3C
FC3C
3C3C
3C3C
3C3C
3C3C
3F3C
3F3C
0FFC
0FFC
003C
003C
3C30
3C30
3FC0
3FC0
ENDCHAR
STARTCHAR 0178
ENCODING 376
SWIDTH 690 0
DWIDTH 23 0
BBX 23 33 -2 -8
BITMAP
00C300
00C300
000000
000000
0F003E
0F003E
FF00F8
FF00F8
FF00F8
0F00F8
0F00F8
0F00F8
0F00F8
0F00F8
0F00F8
0F00F8
0F00F8
0F00F8
0F00F8
0FC3F8
0FC3F8
03FCF8
03FCF8
00F0F8
00F0F8
0000F8
0000F8
0FF0F8
0FF0F8
3FFFE0
3FFFE0
C03F00
C03F00
ENDCHAR
STARTCHAR 0179
ENCODING 377
SWIDTH 690 0
DWIDTH 23 0
BBX 23 25 -2 0
BITMAP
000F00
000F00
003C00
003C00
000000
000000
03F03E
03F03E
0FFFFE
0FFFF8
0FFFF8
303FE0
303FE0
003C00
003C00
0FFF00
0FFF00
030000
030000
0FF006
0FF006
3FFFF8
3FFFF8
F00FE0
F00FE0
ENDCHAR
STARTCHAR 017A
ENCODING 378
SWIDTH 510 0
DWIDTH 17 0
BBX 16 21 -2 0
BITMAP
00F0
00F0
03C0
03C0
03C0
0000
0000
0F03
0F03
3FFC
3FFC
C0F0
C0F0
0300
0300
0F03
0F03
3FFC
3FFC
C0F0
C0F0
ENDCHAR
STARTCHAR 017B
ENCODING 379
SWIDTH 690 0
DWIDTH 23 0
BBX 23 25 -2 0
BITMAP
003C00
003C00
003C00
003C00
000000
000000
03F03E
03F03E
0FFFFE
0FFFF8
0FFFF8
303FE0
303FE0
003C00
003C00
0FFF00
0FFF00
030000
030000
0FF006
0FF006
3FFFF8
3FFFF8
F00FE0
F00FE0
ENDCHAR
STARTCHAR 017C
ENCODING 380
SWIDTH 510 0
DWIDTH 17 0
BBX 16 21 -2 0
BITMAP
03C0
03C0
03C0
03C0
03C0
0000
0000
0F03
0F03
3FFC
3FFC
C0F0
C0F0
0300
0300
0F03
0F03
3FFC
3FFC
C0F0
C0F0
ENDCHAR
STARTCHAR 017D
ENCODING 381
SWIDTH 690 0
DWIDTH 23 0
BBX 23 25 -2 0
BITMAP
003300
003300
000C00
000C00
000000
000000
03F03E
03F03E
0FFFFE
0FFFF8
0FFFF8
303FE0
303FE0
003C00
003C00
0FFF00
0FFF00
030000
030000
0FF006
0FF006
3FFFF8
3FFFF8
F00FE0
F00FE0
ENDCHAR
STARTCHAR 017E
ENCODING 382
SWIDTH 510 0
DWIDTH 17 0
BBX 16 21 -2 0
BITMAP
0330
0330
00C0
00C0
00C0
0000
0000
0F03
0F03
3FFC
3FFC
C0F0
C0F0
0300
0300
0F03
0F03
3FFC
3FFC
C0F0
C0F0
ENDCHAR
STARTCHAR 20AC
ENCODING 8364
SWIDTH 630 0
DWIDTH 21 0
BBX 21 21 -2 0
BITMAP
003F00
003F00
03FFE0
03FFE0
0FFFE0
0C03E0
0C03E0
FFF000
FFF000
3C0000
3C0000
FFF000
FFF000
3C0000
3C0000
0F0038
0F0038
03FFE0
03FFE0
00FF00
00FF00
ENDCHAR
STARTCHAR 3000
ENCODING 12288
SWIDTH 990 0
DWIDTH 33 0
BBX 0 0 0 0
BITMAP
ENDCHAR
ENDFONT
